<svg xmlns="http://www.w3.org/2000/svg" xmlns:xlink="http://www.w3.org/1999/xlink" width="2400" zoomAndPan="magnify" viewBox="0 0 1800 1799.999925" height="2400" preserveAspectRatio="xMidYMid meet" version="1.0"><rect x="-180" width="2160" fill="#fefefe" y="-179.999992" height="2159.99991" fill-opacity="1"/><path fill="#158c61" d="M 796.222656 700.570312 L 801.171875 702.21875 L 798.085938 705.1875 C 789.136719 713.949219 781.089844 722.90625 773.269531 732.695312 C 770.394531 736.183594 767.324219 739.492188 764.0625 742.625 C 757.890625 748.582031 752.65625 755.195312 747.28125 761.875 C 743.613281 766.335938 739.820312 770.621094 735.925781 774.886719 C 728.707031 782.816406 722.058594 791.109375 715.414062 799.519531 C 708.046875 808.707031 700.585938 817.730469 692.636719 826.425781 C 687.523438 832.03125 683.246094 837.664062 679.132812 844.050781 C 676.648438 847.054688 674.109375 850.015625 671.523438 852.933594 C 669.042969 855.742188 669.042969 855.742188 666.351562 859.613281 L 664.289062 862.191406 L 660.992188 862.191406 L 659.753906 864.871094 C 657.203125 869.71875 654.15625 874.136719 651.097656 878.679688 L 648.417969 883.421875 L 646.148438 886.925781 L 642.851562 886.925781 L 641.40625 890.742188 C 639.550781 895.171875 639.550781 895.171875 636.253906 900.121094 L 632.957031 900.121094 L 631.640625 902.882812 C 629.414062 907.183594 626.90625 911.195312 624.296875 915.269531 L 621.167969 920.160156 C 618.609375 924.089844 616.007812 927.992188 613.371094 931.867188 C 602.96875 947.445312 593.695312 963.433594 585.507812 980.261719 C 578.597656 994.3125 570.621094 1007.761719 562.78125 1021.304688 C 559.265625 1027.445312 555.789062 1033.601562 552.351562 1039.785156 C 548.410156 1046.832031 544.398438 1053.816406 540.191406 1060.707031 C 537.199219 1065.613281 534.488281 1070.664062 532.046875 1075.859375 C 527.410156 1085.441406 521.5 1094.175781 515.589844 1103.007812 C 511.6875 1108.886719 508.234375 1114.363281 505.96875 1121.109375 L 502.671875 1121.109375 L 502.078125 1124.03125 C 500.976562 1127.867188 499.527344 1130.386719 497.3125 1133.683594 C 494.019531 1138.769531 491.199219 1143.902344 488.550781 1149.351562 C 486.214844 1154.144531 483.839844 1158.664062 480.820312 1163.058594 C 477.714844 1167.195312 477.714844 1167.195312 476.285156 1172.234375 C 489.386719 1173.488281 503.171875 1174.636719 515.863281 1170.585938 C 524.195312 1164.074219 528.242188 1154.402344 532.28125 1144.875 C 534.101562 1140.671875 536.109375 1136.644531 538.265625 1132.601562 L 540.214844 1128.914062 L 542.25 1126.054688 L 547.199219 1124.40625 C 553.308594 1128.507812 557.773438 1133.433594 562.351562 1139.148438 L 566.242188 1143.996094 C 573.875 1153.710938 581.382812 1163.511719 588.875 1173.332031 C 596.046875 1182.730469 603.261719 1192.078125 610.796875 1201.195312 C 617.113281 1208.851562 623.078125 1216.71875 628.996094 1224.683594 C 637.386719 1235.847656 645.980469 1246.910156 654.929688 1257.632812 L 657.691406 1261.289062 L 657.691406 1264.585938 L 660.992188 1264.585938 C 663.890625 1267.929688 666.675781 1271.363281 669.339844 1274.894531 L 671.636719 1277.824219 C 677.277344 1285.199219 677.277344 1285.199219 678.355469 1289.570312 L 679.132812 1292.621094 L 681.984375 1294.007812 C 687.625 1296.890625 690.757812 1301.78125 694.488281 1306.742188 L 696.890625 1309.875 C 698.484375 1311.949219 700.066406 1314.027344 701.648438 1316.109375 C 705.523438 1321.167969 709.535156 1326.125 713.527344 1331.09375 L 715.414062 1333.851562 L 715.414062 1337.148438 L 720.363281 1338.800781 C 723.019531 1341.9375 725.5625 1345.167969 727.988281 1348.488281 C 729.449219 1350.4375 730.90625 1352.382812 732.367188 1354.332031 L 734.613281 1357.316406 C 739.21875 1363.320312 744.140625 1369.066406 749.027344 1374.839844 L 751.695312 1378.378906 L 751.695312 1381.675781 L 754.992188 1381.675781 C 757.84375 1384.808594 757.84375 1384.808594 760.972656 1388.890625 L 764.128906 1392.949219 L 766.539062 1396.519531 L 766.539062 1399.816406 L 769.835938 1399.816406 C 772.144531 1402.296875 774.320312 1404.902344 776.433594 1407.550781 L 780.464844 1412.578125 C 785.300781 1418.71875 790.03125 1424.9375 794.761719 1431.15625 C 801.320312 1439.714844 808.261719 1447.914062 815.277344 1456.097656 C 822.917969 1465.074219 822.917969 1465.074219 825.90625 1469.082031 L 825.90625 1472.382812 L 829.207031 1472.382812 C 831.4375 1474.832031 833.546875 1477.402344 835.597656 1480.007812 C 840.691406 1486.394531 845.863281 1492.65625 851.246094 1498.800781 C 859.050781 1507.730469 866.328125 1516.835938 873.21875 1526.496094 C 883.550781 1541.265625 883.550781 1541.265625 896.820312 1553.191406 C 900.136719 1553.515625 900.136719 1553.515625 903.417969 1551.542969 C 906.648438 1548.804688 909.742188 1545.917969 912.695312 1542.882812 L 915.324219 1540.222656 C 922.878906 1532.414062 929.421875 1524.007812 935.90625 1515.304688 C 940.207031 1509.644531 944.832031 1504.40625 949.617188 1499.152344 C 953.25 1495.074219 956.679688 1490.859375 960.109375 1486.605469 C 965.207031 1480.324219 970.5 1474.207031 975.980469 1468.257812 C 984.054688 1459.46875 991.589844 1450.339844 999.070312 1441.046875 C 1000.832031 1438.882812 1002.59375 1436.722656 1004.359375 1434.558594 C 1012.792969 1424.222656 1021.1875 1413.867188 1029.335938 1403.296875 C 1033.679688 1397.734375 1038.175781 1392.296875 1042.65625 1386.84375 C 1048.453125 1379.789062 1054.199219 1372.699219 1059.953125 1365.613281 C 1064.570312 1359.917969 1069.199219 1354.230469 1073.835938 1348.546875 C 1082.339844 1338.121094 1090.785156 1327.664062 1099.050781 1317.050781 C 1104.894531 1309.558594 1110.90625 1302.207031 1117.089844 1294.992188 C 1123.722656 1287.242188 1130.054688 1279.316406 1136.226562 1271.195312 C 1141.421875 1264.367188 1146.75 1257.660156 1152.132812 1250.980469 C 1160.332031 1240.800781 1168.300781 1230.460938 1176.214844 1220.058594 C 1183 1211.160156 1189.917969 1202.363281 1196.96875 1193.671875 C 1205.21875 1183.472656 1213.265625 1173.117188 1221.109375 1162.601562 C 1243.554688 1132.589844 1243.554688 1132.589844 1251.394531 1126.054688 L 1257.988281 1126.054688 C 1260.609375 1129.679688 1262.980469 1133.460938 1265.101562 1137.394531 C 1266.398438 1139.671875 1267.703125 1141.941406 1269.011719 1144.210938 L 1270.957031 1147.609375 C 1278.789062 1161.003906 1278.789062 1161.003906 1289.324219 1172.234375 C 1293.136719 1173.0625 1293.136719 1173.0625 1297.382812 1173.078125 L 1302.070312 1173.253906 L 1306.949219 1173.367188 L 1311.886719 1173.539062 C 1315.910156 1173.675781 1319.933594 1173.789062 1323.957031 1173.882812 C 1321.75 1164.488281 1318.105469 1157.445312 1312.929688 1149.351562 L 1307.980469 1141.414062 L 1305.300781 1137.128906 C 1282 1099.644531 1259.550781 1061.457031 1239.390625 1022.183594 C 1235.332031 1014.347656 1231.039062 1006.929688 1226.140625 999.585938 C 1219.0625 988.972656 1213.140625 977.875 1207.175781 966.601562 C 1192.792969 939.546875 1176.878906 914.414062 1158.195312 890.148438 C 1153.230469 883.632812 1148.4375 876.992188 1143.625 870.367188 C 1139.5625 864.78125 1135.355469 859.308594 1131.003906 853.945312 L 1127.808594 849.984375 C 1120.828125 841.402344 1113.714844 832.933594 1106.472656 824.570312 C 1099.855469 816.917969 1093.464844 809.085938 1087.300781 801.070312 C 1080.378906 792.078125 1073.003906 783.679688 1065.132812 775.507812 C 1059.996094 770.113281 1055.917969 764.507812 1051.84375 758.292969 C 1049.164062 755.277344 1049.164062 755.277344 1046.382812 752.726562 C 1042.410156 748.875 1038.652344 744.960938 1035.042969 740.769531 C 1029.636719 734.5 1024.0625 728.402344 1018.449219 722.320312 L 1015.851562 719.503906 C 1010.988281 714.246094 1010.988281 714.246094 1005.898438 709.210938 L 1004.019531 707.167969 L 1004.019531 703.871094 L 999.070312 702.21875 L 999.070312 700.570312 C 1003.367188 700.332031 1006.605469 700.285156 1010.628906 701.914062 L 1014.121094 703.871094 C 1022.183594 708.132812 1030.429688 711.640625 1038.855469 715.105469 C 1053.445312 721.15625 1067.53125 727.894531 1081.527344 735.203125 L 1085.71875 737.390625 C 1094.78125 742.128906 1103.828125 746.898438 1112.863281 751.695312 L 1112.863281 754.992188 L 1115.851562 755.613281 C 1119.460938 756.644531 1119.460938 756.644531 1124.40625 759.941406 L 1124.40625 763.238281 L 1127.910156 764.476562 C 1133.304688 766.820312 1137.832031 769.625 1142.546875 773.132812 L 1142.546875 776.433594 L 1150.792969 779.730469 L 1150.792969 783.03125 L 1153.609375 784.226562 C 1158.207031 786.78125 1161.363281 789.875 1165.089844 793.585938 L 1169.554688 798.042969 L 1174.191406 802.714844 L 1178.730469 807.214844 C 1187.617188 816.128906 1195.847656 825.3125 1203.660156 835.179688 C 1207.390625 839.746094 1211.4375 843.816406 1215.660156 847.921875 C 1247.917969 879.878906 1268.339844 920.753906 1288.6875 960.730469 C 1295.625 974.347656 1302.714844 987.710938 1310.761719 1000.71875 C 1317.308594 1011.886719 1317.308594 1011.886719 1319.007812 1015.5625 L 1319.007812 1020.511719 L 1322.308594 1020.511719 C 1324.445312 1023.476562 1324.445312 1023.476562 1326.84375 1027.621094 L 1329.496094 1032.183594 C 1332.09375 1036.824219 1334.644531 1041.488281 1337.148438 1046.175781 C 1340.226562 1051.894531 1343.464844 1057.316406 1347.148438 1062.667969 C 1350.601562 1067.699219 1353.464844 1072.730469 1356.113281 1078.230469 C 1359.363281 1084.933594 1363.058594 1090.984375 1367.265625 1097.117188 C 1370.8125 1102.3125 1374.242188 1107.578125 1377.65625 1112.863281 L 1379.476562 1115.648438 C 1383.628906 1122.078125 1387.371094 1128.675781 1391.054688 1135.386719 C 1394.714844 1141.910156 1398.664062 1148.25 1402.601562 1154.609375 C 1404.191406 1157.175781 1405.777344 1159.746094 1407.363281 1162.320312 L 1409.453125 1165.695312 C 1412.714844 1171.226562 1414.59375 1175.046875 1415.484375 1181.511719 C 1415.324219 1187.683594 1413.417969 1191.765625 1410.332031 1197.074219 C 1403.199219 1207.976562 1396.367188 1216.71875 1384.976562 1223.355469 C 1379.742188 1224.117188 1379.742188 1224.117188 1374.070312 1224.027344 L 1367.597656 1223.976562 L 1364.175781 1223.902344 C 1360.609375 1223.832031 1357.046875 1223.785156 1353.480469 1223.761719 C 1345.90625 1223.699219 1338.332031 1223.582031 1330.757812 1223.460938 C 1321.988281 1223.328125 1313.21875 1223.21875 1304.445312 1223.144531 C 1300.953125 1223.101562 1297.460938 1223.042969 1293.964844 1222.964844 C 1282.453125 1222.851562 1273.261719 1222.957031 1262.9375 1228.304688 C 1259.757812 1231.828125 1257.464844 1234.769531 1255 1238.714844 C 1253.617188 1240.789062 1252.226562 1242.859375 1250.832031 1244.925781 L 1248.683594 1248.148438 C 1244.945312 1253.574219 1240.859375 1258.714844 1236.757812 1263.867188 L 1234.496094 1266.71875 C 1231.289062 1270.75 1228.074219 1274.777344 1224.84375 1278.789062 C 1220.8125 1283.855469 1216.878906 1288.992188 1212.941406 1294.128906 C 1210.503906 1297.148438 1207.960938 1299.785156 1205.214844 1302.515625 C 1203.433594 1304.691406 1201.679688 1306.890625 1199.960938 1309.113281 L 1196.933594 1313.023438 C 1192.238281 1319.265625 1187.753906 1325.652344 1183.28125 1332.054688 L 1180.480469 1335.5 L 1177.179688 1335.5 L 1176.773438 1338.269531 C 1175.113281 1343.382812 1172.304688 1346.460938 1168.832031 1350.550781 L 1164.757812 1355.398438 L 1160.6875 1360.238281 C 1158.445312 1363.011719 1156.210938 1365.796875 1153.988281 1368.585938 C 1150.742188 1372.664062 1147.488281 1376.738281 1144.203125 1380.789062 C 1138.378906 1387.988281 1132.78125 1395.269531 1127.398438 1402.804688 C 1122.921875 1409.035156 1118.425781 1414.363281 1112.863281 1419.609375 L 1110.082031 1423.421875 L 1107.914062 1426.203125 L 1104.617188 1426.203125 L 1103.378906 1429.78125 C 1101.089844 1434.96875 1098.277344 1438.800781 1094.722656 1443.210938 L 1091.21875 1447.625 L 1088.125 1450.941406 L 1084.828125 1450.941406 L 1083.546875 1454.640625 C 1081.4375 1459.394531 1079.203125 1462.222656 1075.65625 1465.992188 C 1066.609375 1475.847656 1057.625 1485.972656 1050.195312 1497.117188 L 1046.898438 1497.117188 L 1045.867188 1500.519531 C 1041.582031 1509.675781 1034.179688 1516.429688 1027.105469 1523.503906 L 1023.601562 1528.039062 L 1020.507812 1531.75 L 1017.210938 1531.75 L 1017.210938 1536.699219 C 1015.433594 1538.589844 1013.632812 1540.460938 1011.742188 1542.238281 C 1005.523438 1548.300781 999.890625 1554.949219 994.125 1561.4375 L 991.121094 1564.800781 C 985.871094 1570.734375 980.832031 1576.792969 975.878906 1582.980469 C 966.953125 1593.953125 957.246094 1604.15625 947.53125 1614.4375 C 943.953125 1618.246094 940.425781 1622.097656 936.898438 1625.960938 C 933.695312 1629.453125 930.480469 1632.929688 927.246094 1636.390625 C 925.625 1638.125 924.011719 1639.863281 922.402344 1641.605469 C 920.011719 1644.179688 917.597656 1646.71875 915.167969 1649.253906 L 910.957031 1653.710938 C 906.71875 1657.085938 906.71875 1657.085938 901.550781 1658.609375 L 896.820312 1658.738281 L 891.875 1655.4375 L 891.875 1652.140625 L 889.226562 1651.125 C 883.5625 1647.851562 879.417969 1643.398438 874.867188 1638.742188 L 871.984375 1635.820312 C 865.140625 1628.847656 858.53125 1621.730469 852.292969 1614.210938 L 848.277344 1609.46875 L 845.699219 1605.964844 L 845.699219 1602.664062 L 842.398438 1602.664062 C 840.285156 1600.226562 838.257812 1597.71875 836.320312 1595.140625 C 831.367188 1588.789062 826.273438 1583.042969 820.496094 1577.453125 C 815.402344 1572.378906 810.796875 1566.886719 806.117188 1561.4375 L 803.195312 1558.152344 L 800.449219 1555.046875 L 797.980469 1552.273438 L 796.222656 1549.890625 L 796.222656 1546.59375 L 792.925781 1546.59375 C 790.714844 1544.042969 790.714844 1544.042969 788.082031 1540.410156 C 783.121094 1533.820312 777.832031 1527.765625 772.207031 1521.753906 C 766.316406 1515.4375 760.867188 1509.027344 755.824219 1502.011719 C 752.898438 1498.183594 749.707031 1494.691406 746.4375 1491.140625 C 738.757812 1482.738281 731.796875 1473.878906 724.820312 1464.894531 C 719.640625 1458.234375 714.277344 1451.726562 708.914062 1445.214844 C 705.703125 1441.257812 702.542969 1437.257812 699.4375 1433.214844 C 693.714844 1425.804688 687.691406 1418.714844 681.464844 1411.726562 C 674.414062 1403.769531 667.785156 1395.5625 661.300781 1387.140625 L 658.285156 1383.242188 C 654.480469 1378.324219 650.683594 1373.394531 646.890625 1368.460938 C 643.386719 1363.910156 639.886719 1359.355469 636.394531 1354.792969 C 634.054688 1351.765625 631.65625 1348.78125 629.207031 1345.839844 L 626.359375 1342.097656 L 626.359375 1338.800781 L 623.0625 1338.800781 C 620.929688 1336.488281 620.929688 1336.488281 618.511719 1333.246094 L 615.816406 1329.667969 L 612.960938 1325.8125 C 611.011719 1323.222656 609.0625 1320.632812 607.109375 1318.042969 L 604.246094 1314.230469 C 600.050781 1308.691406 595.691406 1303.285156 591.328125 1297.878906 C 587.417969 1293.011719 583.605469 1288.074219 579.785156 1283.140625 C 576.855469 1279.40625 573.894531 1275.695312 570.90625 1272.007812 C 563.789062 1263.152344 556.921875 1254.113281 550.074219 1245.046875 L 547.441406 1241.582031 L 545.132812 1238.523438 L 542.25 1234.902344 L 540.605469 1231.945312 C 538.140625 1228.148438 536.132812 1225.898438 532.355469 1223.355469 C 524.007812 1221.792969 515.765625 1222.171875 507.320312 1222.460938 C 504.855469 1222.5 502.386719 1222.53125 499.917969 1222.558594 C 493.429688 1222.640625 486.945312 1222.785156 480.460938 1222.949219 C 470.09375 1223.207031 459.730469 1223.398438 449.359375 1223.535156 C 445.753906 1223.59375 442.152344 1223.699219 438.550781 1223.808594 C 420.410156 1224.203125 420.410156 1224.203125 412.265625 1220.25 C 400.527344 1212.441406 392.972656 1201.230469 385.472656 1189.476562 C 383.929688 1185.425781 383.929688 1185.425781 384.203125 1180.535156 C 385.660156 1175.242188 387.574219 1171.351562 390.425781 1166.667969 L 393.601562 1161.410156 C 397.980469 1154.335938 402.414062 1147.292969 406.847656 1140.253906 C 413.613281 1129.460938 420.082031 1118.503906 426.535156 1107.527344 C 433.402344 1095.871094 440.332031 1084.25 447.320312 1072.664062 C 471.804688 1031.917969 495.824219 990.878906 517.515625 948.566406 C 532.03125 920.402344 547.480469 892.1875 568.132812 868.011719 C 570.363281 865.398438 572.554688 862.75 574.738281 860.09375 C 583.207031 849.871094 592.011719 839.992188 601.089844 830.300781 C 605.417969 825.679688 609.652344 820.976562 613.796875 816.1875 C 629.992188 797.609375 647.519531 780.84375 667.589844 766.539062 L 672.292969 762.996094 C 689.898438 750.128906 709.339844 740.367188 728.605469 730.257812 L 735.578125 726.53125 C 749.011719 719.472656 762.898438 713.609375 776.949219 707.890625 L 782.472656 705.617188 L 787.648438 703.554688 L 792.292969 701.6875 Z M 796.222656 700.570312 " fill-opacity="1" fill-rule="nonzero"/><path fill="#066241" d="M 898.472656 853.945312 C 902.867188 855.4375 906.210938 856.792969 909.710938 859.882812 C 917.617188 869.042969 924.867188 878.601562 932.054688 888.324219 C 938.113281 896.480469 944.46875 904.285156 951.097656 911.980469 C 957.542969 919.476562 963.667969 927.203125 969.730469 935.011719 L 971.847656 937.734375 L 973.894531 940.375 C 976.078125 943.117188 978.347656 945.761719 980.632812 948.417969 L 984.226562 952.894531 L 984.226562 956.191406 L 987.527344 956.191406 C 990.421875 959.574219 993.207031 963.042969 995.875 966.601562 L 998.171875 969.574219 C 1001.441406 973.875 1003.945312 977.421875 1005.667969 982.578125 L 1008.964844 982.578125 C 1011.8125 985.710938 1011.8125 985.710938 1014.945312 989.792969 L 1018.101562 993.851562 L 1020.507812 997.421875 L 1020.507812 1000.71875 L 1023.808594 1000.71875 C 1026.667969 1003.863281 1026.667969 1003.863281 1029.992188 1008.140625 L 1033.523438 1012.675781 L 1037 1017.210938 L 1040.070312 1021.128906 C 1045.167969 1027.738281 1045.167969 1027.738281 1046.894531 1030.40625 L 1046.894531 1033.703125 L 1050.195312 1033.703125 C 1052.230469 1035.964844 1052.230469 1035.964844 1054.730469 1039.371094 C 1061.652344 1048.550781 1068.976562 1057.371094 1076.332031 1066.203125 C 1090.59375 1083.402344 1090.59375 1083.402344 1094.722656 1089.773438 L 1094.722656 1093.074219 L 1098.019531 1093.074219 C 1100.835938 1096.113281 1100.835938 1096.113281 1104.308594 1100.496094 L 1108.285156 1105.46875 L 1110.480469 1108.234375 C 1113.074219 1111.46875 1115.6875 1114.6875 1118.320312 1117.886719 L 1121.164062 1121.363281 C 1123.011719 1123.617188 1124.855469 1125.871094 1126.707031 1128.121094 C 1141.78125 1146.613281 1141.78125 1146.613281 1144.300781 1154.917969 C 1144.195312 1160.6875 1144.195312 1160.6875 1141.414062 1166.667969 C 1137.511719 1172.652344 1133.101562 1178.109375 1128.367188 1183.457031 C 1122.523438 1190.046875 1116.992188 1196.890625 1111.773438 1203.984375 C 1109.109375 1207.457031 1106.109375 1210.425781 1102.96875 1213.460938 L 1099.464844 1217.894531 C 1096.371094 1221.707031 1096.371094 1221.707031 1093.074219 1223.355469 C 1088.539062 1224.183594 1088.539062 1224.183594 1083.179688 1223.355469 C 1077.777344 1218.753906 1074.023438 1212.949219 1070.171875 1207.046875 C 1066.703125 1201.9375 1062.96875 1197.332031 1058.957031 1192.640625 C 1052.023438 1184.449219 1045.507812 1176.023438 1039.113281 1167.402344 C 1026.605469 1150.5625 1013.507812 1134.257812 1000.160156 1118.082031 L 996.496094 1113.585938 L 993.191406 1109.558594 L 990.824219 1106.265625 L 990.824219 1102.96875 L 987.527344 1102.96875 C 985.152344 1100.097656 982.90625 1097.121094 980.722656 1094.105469 C 979.394531 1092.28125 978.058594 1090.464844 976.722656 1088.648438 L 974.683594 1085.863281 C 969.8125 1079.320312 964.621094 1073.027344 959.492188 1066.6875 L 956.25 1062.628906 C 952.820312 1058.359375 949.367188 1054.113281 945.886719 1049.886719 C 935.722656 1037.46875 925.699219 1024.960938 915.890625 1012.265625 L 913.703125 1009.445312 C 908.5625 1002.757812 908.5625 1002.757812 906.71875 999.070312 C 902.804688 997.546875 902.804688 997.546875 898.472656 997.421875 C 895.652344 999.6875 895.652344 999.6875 893.523438 1002.367188 L 890.226562 1002.367188 L 889.09375 1005.875 C 886.480469 1011.597656 882.824219 1015.859375 878.679688 1020.507812 C 876.957031 1022.464844 875.238281 1024.421875 873.527344 1026.386719 L 871.144531 1029.070312 C 868.65625 1032.082031 868.65625 1032.082031 866.5625 1035.820312 C 863.140625 1041.449219 859.171875 1046.492188 855.078125 1051.636719 L 852.609375 1054.761719 C 847.960938 1060.617188 843.242188 1066.382812 838.320312 1072.011719 C 830.542969 1081.027344 822.851562 1090.152344 816.113281 1099.976562 L 812.714844 1104.617188 L 809.417969 1104.617188 L 808.285156 1108.226562 C 805.6875 1113.785156 802.246094 1116.835938 797.871094 1121.109375 C 795.640625 1124.386719 793.441406 1127.683594 791.277344 1131.003906 C 788.660156 1134.484375 785.960938 1137.660156 783.03125 1140.898438 L 779.730469 1140.898438 L 779.730469 1145.847656 L 776.433594 1147.496094 L 774.269531 1151.207031 C 771.164062 1156.265625 767.425781 1159.800781 763.238281 1163.988281 C 761.539062 1166.707031 759.890625 1169.453125 758.292969 1172.234375 C 754.890625 1176.871094 754.890625 1176.871094 751.695312 1180.480469 L 748.398438 1180.480469 L 747.25 1183.933594 C 744.628906 1189.769531 741.015625 1194.476562 737.058594 1199.445312 L 734.890625 1202.222656 C 733.476562 1204.023438 732.058594 1205.816406 730.632812 1207.605469 C 728.722656 1210.035156 726.839844 1212.484375 724.988281 1214.957031 L 722.011719 1218.410156 L 718.710938 1218.410156 L 718.710938 1221.707031 C 714.488281 1223.976562 714.488281 1223.976562 708.816406 1225.007812 C 704.226562 1222.433594 700.53125 1219.246094 697.273438 1215.113281 L 697.273438 1210.164062 L 692.324219 1208.515625 C 689.363281 1205.03125 686.511719 1201.457031 683.769531 1197.796875 C 678.328125 1190.675781 672.847656 1183.773438 666.761719 1177.179688 C 657.78125 1167.105469 657.78125 1167.105469 656.042969 1160.6875 C 657.800781 1151.117188 661.945312 1143.710938 668.128906 1136.332031 L 670.886719 1133.167969 L 676.691406 1126.269531 L 679.617188 1122.816406 C 683.8125 1117.808594 687.8125 1112.664062 691.8125 1107.503906 C 698.660156 1098.71875 705.726562 1090.152344 712.894531 1081.625 C 717.375 1076.207031 721.710938 1070.691406 726.03125 1065.140625 C 732.074219 1057.371094 738.292969 1049.746094 744.6875 1042.257812 C 751.667969 1034.085938 758.351562 1025.742188 764.890625 1017.210938 C 773.894531 1005.527344 783.023438 994.011719 792.71875 982.890625 C 801.101562 973.253906 808.898438 963.25 816.601562 953.070312 C 823.875 943.46875 831.398438 934.121094 839.101562 924.859375 C 842.886719 920.292969 846.664062 915.722656 850.441406 911.148438 C 851.433594 909.945312 852.425781 908.746094 853.449219 907.507812 C 859.617188 900.023438 865.636719 892.4375 871.570312 884.761719 C 879.953125 873.933594 889.0625 863.882812 898.472656 853.945312 " fill-opacity="1" fill-rule="nonzero"/><path fill="#158c61" d="M 896.820312 660.992188 C 900.984375 660.816406 900.984375 660.816406 905.066406 662.640625 C 909.191406 666.121094 909.191406 666.121094 913.3125 670.472656 L 917.4375 674.777344 L 921.558594 679.132812 C 925.265625 682.871094 928.980469 686.585938 932.773438 690.230469 C 935.144531 692.515625 937.425781 694.894531 939.699219 697.273438 L 939.699219 700.570312 L 942.507812 701.652344 C 947.566406 704.613281 950.464844 708.386719 954.128906 712.941406 L 958.125 717.835938 L 961.140625 722.011719 L 961.140625 725.308594 L 964.4375 725.308594 C 966.832031 727.980469 969.132812 730.730469 971.34375 733.554688 C 976.96875 740.605469 982.726562 747.425781 988.820312 754.070312 L 990.824219 756.644531 L 990.824219 759.941406 L 993.699219 761.085938 C 998.402344 763.808594 1000.871094 767.007812 1004.222656 771.28125 L 1008.140625 776.199219 L 1010.183594 778.78125 C 1013.621094 783.074219 1017.175781 787.269531 1020.714844 791.480469 C 1026.445312 798.34375 1032.027344 805.28125 1037.476562 812.367188 C 1040.574219 816.367188 1043.726562 820.316406 1046.894531 824.257812 L 1053.492188 832.503906 L 1056.894531 836.730469 L 1060.089844 840.75 L 1062.976562 844.359375 L 1065.039062 847.347656 L 1065.039062 850.644531 L 1068.335938 850.644531 C 1071.078125 853.671875 1071.078125 853.671875 1074.3125 857.859375 L 1077.890625 862.441406 L 1081.527344 867.136719 C 1083.6875 869.855469 1085.851562 872.570312 1088.023438 875.28125 L 1091.320312 879.410156 C 1094.867188 883.792969 1098.441406 888.152344 1102.042969 892.492188 C 1107.453125 899.097656 1112.746094 905.796875 1117.914062 912.59375 L 1121.683594 917.546875 L 1124.40625 921.558594 L 1124.40625 924.859375 L 1127.707031 924.859375 C 1135.941406 933.835938 1142.507812 944.367188 1149.144531 954.542969 L 1154.296875 962.171875 C 1157.230469 966.554688 1159.988281 970.957031 1162.542969 975.570312 C 1165.472656 980.976562 1165.472656 980.976562 1169.347656 985.464844 L 1172.234375 989.175781 L 1172.234375 994.121094 L 1175.53125 994.121094 C 1177.195312 997.550781 1178.84375 1000.988281 1180.480469 1004.429688 L 1183.261719 1010.230469 C 1185.425781 1015.5625 1185.425781 1015.5625 1185.425781 1022.160156 L 1188.726562 1022.160156 L 1189.328125 1025.058594 C 1191.257812 1034.054688 1193.601562 1042.617188 1197.042969 1051.175781 C 1199.042969 1058.292969 1199.164062 1064.792969 1199.136719 1072.148438 L 1199.214844 1076.164062 C 1199.222656 1085.902344 1197.253906 1093.933594 1193.671875 1102.96875 C 1189.933594 1102.535156 1189.933594 1102.535156 1185.425781 1101.320312 C 1182.257812 1098.605469 1182.257812 1098.605469 1179.242188 1095.03125 L 1175.808594 1090.957031 C 1169.46875 1083.011719 1163.410156 1074.875 1157.390625 1066.6875 C 1145.765625 1050.96875 1133.890625 1035.5625 1120.800781 1021.027344 C 1115.921875 1015.601562 1111.472656 1010.019531 1107.15625 1004.140625 C 1100.015625 994.515625 1092.386719 985.300781 1084.527344 976.261719 C 1075.207031 965.542969 1066.4375 954.515625 1057.863281 943.191406 C 1047.011719 928.855469 1035.5 915.105469 1023.859375 901.410156 C 1017.078125 893.414062 1010.519531 885.257812 1004.019531 877.03125 C 993.441406 863.777344 982.75 850.738281 971.324219 838.207031 C 967.84375 834.277344 964.582031 830.246094 961.347656 826.113281 C 956.371094 819.78125 951.082031 813.84375 945.578125 807.972656 C 938.140625 800.03125 931.621094 791.667969 925.199219 782.875 C 918.570312 774.144531 911.167969 766.042969 903.417969 758.292969 C 899.339844 758.320312 899.339844 758.320312 895.171875 759.941406 C 891.851562 762.941406 891.851562 762.941406 889.09375 766.640625 C 887.34375 768.867188 885.519531 771.03125 883.628906 773.132812 L 880.332031 773.132812 L 880.332031 778.082031 L 877.03125 778.082031 L 875.980469 781.445312 C 872.96875 787.988281 868.742188 792.980469 864.148438 798.492188 L 861.292969 801.957031 C 852.078125 813.101562 842.59375 824.011719 833.050781 834.878906 C 831.003906 837.277344 829.074219 839.777344 827.152344 842.277344 L 824.257812 845.699219 L 820.960938 845.699219 L 819.621094 848.480469 C 817.476562 852.65625 815.34375 856.648438 812.714844 860.539062 L 807.765625 862.191406 C 805.890625 865.390625 804.523438 868.648438 803.128906 872.085938 C 800.523438 876.46875 796.890625 878.828125 792.925781 881.980469 L 791.277344 886.925781 L 787.976562 886.925781 L 786.328125 891.875 L 783.03125 891.875 L 781.691406 894.734375 C 779.664062 898.601562 777.382812 901.972656 774.785156 905.480469 L 772.207031 909.007812 L 769.835938 911.664062 L 766.539062 911.664062 L 766.230469 914.339844 C 764.300781 919.984375 760.535156 923.863281 756.644531 928.261719 L 751.683594 933.992188 L 749.167969 936.886719 C 745.605469 941.027344 742.15625 945.253906 738.707031 949.492188 L 735.105469 953.898438 C 733.148438 956.308594 731.203125 958.730469 729.269531 961.167969 C 727.457031 963.40625 725.585938 965.597656 723.660156 967.738281 L 720.363281 967.738281 L 720.066406 970.394531 C 718.09375 976.125 714.214844 980.078125 710.261719 984.535156 C 708.609375 986.441406 706.960938 988.347656 705.3125 990.257812 L 702.867188 993.085938 C 694.269531 1002.910156 694.269531 1002.910156 687.378906 1013.914062 L 684.078125 1013.914062 L 682.945312 1017.417969 C 680.222656 1023.378906 677.003906 1027.25 672.535156 1032.054688 L 669.238281 1032.054688 L 667.886719 1034.964844 C 665.9375 1038.648438 663.804688 1041.59375 661.199219 1044.835938 C 657.3125 1049.714844 653.519531 1054.667969 649.816406 1059.691406 C 640.9375 1071.746094 631.964844 1083.277344 621.667969 1094.175781 C 617.984375 1098.027344 617.984375 1098.027344 614.660156 1102.640625 L 611.515625 1106.265625 L 606.570312 1106.265625 C 601.042969 1091.164062 600.132812 1075.546875 602.378906 1059.671875 C 609.585938 1023.097656 625.039062 993.078125 646.148438 962.789062 L 648.117188 959.9375 C 659.996094 942.792969 672.835938 926.40625 685.730469 910.015625 L 690.597656 903.804688 C 693.566406 900.023438 696.535156 896.25 699.507812 892.476562 C 702.480469 888.699219 705.441406 884.914062 708.386719 881.121094 C 716.507812 870.667969 724.871094 860.410156 733.472656 850.34375 C 739.285156 843.519531 744.777344 836.484375 750.203125 829.34375 C 764.597656 810.464844 779.875 792.296875 795.402344 774.347656 C 797.941406 771.40625 800.464844 768.449219 802.988281 765.492188 C 810.359375 756.851562 817.746094 748.242188 825.394531 739.84375 C 830.304688 734.421875 835.046875 728.855469 839.617188 723.144531 C 846.890625 714.152344 854.667969 705.714844 862.558594 697.265625 C 866.128906 693.429688 869.613281 689.515625 873.011719 685.523438 C 877.882812 679.957031 882.863281 674.496094 887.957031 669.136719 L 892.457031 664.335938 Z M 896.820312 660.992188 " fill-opacity="1" fill-rule="nonzero"/><path fill="#066241" d="M 896.820312 1101.320312 C 900.71875 1101.703125 900.71875 1101.703125 905.066406 1102.96875 C 907.820312 1105.261719 907.820312 1105.261719 910.324219 1108.328125 L 913.238281 1111.871094 L 916.613281 1116.160156 L 918.742188 1118.828125 C 921.03125 1121.710938 923.3125 1124.601562 925.578125 1127.5 L 927.828125 1130.355469 C 929.648438 1132.722656 931.382812 1135.15625 933.105469 1137.601562 L 933.105469 1140.898438 L 936.402344 1140.898438 C 938.675781 1143.792969 940.894531 1146.722656 943.066406 1149.691406 C 946.957031 1154.988281 950.992188 1160.160156 955.058594 1165.328125 L 957.457031 1168.378906 C 962.089844 1174.25 966.785156 1180.070312 971.550781 1185.839844 C 979.183594 1195.101562 986.511719 1204.59375 993.859375 1214.082031 C 1000.292969 1222.378906 1006.847656 1230.550781 1013.535156 1238.644531 C 1018.054688 1244.179688 1022.484375 1249.789062 1026.898438 1255.414062 L 1029.222656 1258.371094 C 1039.988281 1272.113281 1039.988281 1272.113281 1041.640625 1275.925781 C 1042.085938 1280.992188 1040.539062 1284.648438 1038.652344 1289.324219 L 1035.351562 1294.269531 L 1032.054688 1294.269531 L 1030.6875 1297.183594 C 1028.792969 1300.796875 1026.703125 1303.820312 1024.21875 1307.050781 C 1021.480469 1310.625 1018.761719 1314.195312 1016.128906 1317.847656 L 1013.5 1321.480469 C 1012.710938 1322.585938 1011.917969 1323.691406 1011.105469 1324.832031 L 1008.964844 1327.253906 L 1005.667969 1327.253906 L 1004.121094 1330.347656 L 1000.71875 1337.148438 L 997.421875 1337.148438 L 996.183594 1340.757812 C 993.511719 1346.769531 989.882812 1351.367188 985.15625 1355.929688 C 981.269531 1359.941406 978.21875 1364.515625 974.996094 1369.070312 L 972.683594 1371.78125 L 969.386719 1371.78125 L 968.046875 1375.492188 C 966.167969 1379.847656 964.28125 1383.089844 961.140625 1386.625 L 957.839844 1386.625 L 956.554688 1390.257812 C 954.457031 1395.058594 952.015625 1398.605469 948.769531 1402.703125 L 945.730469 1406.597656 C 943 1409.714844 943 1409.714844 939.699219 1411.363281 C 937.992188 1414.074219 936.339844 1416.824219 934.753906 1419.609375 L 931.453125 1424.554688 L 928.15625 1424.554688 L 928.15625 1429.503906 L 924.859375 1429.503906 L 924.859375 1432.800781 L 921.558594 1432.800781 L 921.046875 1435.996094 L 919.910156 1439.398438 L 914.964844 1441.046875 L 914.449219 1443.933594 C 913.3125 1447.644531 913.3125 1447.644531 908.882812 1452.28125 L 903.417969 1455.890625 C 898.554688 1455.761719 898.554688 1455.761719 893.523438 1454.242188 C 890.007812 1451.039062 890.007812 1451.039062 886.722656 1446.71875 L 882.867188 1441.730469 C 881.46875 1439.855469 880.074219 1437.980469 878.679688 1436.101562 L 874.082031 1429.953125 C 871.613281 1426.660156 869.15625 1423.359375 866.699219 1420.058594 C 858.847656 1409.527344 850.578125 1399.359375 842.25 1389.203125 C 837.570312 1383.484375 832.984375 1377.695312 828.492188 1371.832031 C 826.566406 1369.34375 824.621094 1366.867188 822.65625 1364.410156 C 821.585938 1363.070312 820.515625 1361.722656 819.414062 1360.34375 L 816.484375 1356.6875 L 814.363281 1353.640625 L 814.363281 1350.34375 L 811.066406 1350.34375 C 808.378906 1347.375 808.378906 1347.375 805.191406 1343.230469 L 801.597656 1338.625 L 797.871094 1333.851562 C 795.578125 1331.027344 793.277344 1328.207031 790.96875 1325.398438 L 787.28125 1320.898438 C 784.96875 1318.074219 782.652344 1315.253906 780.332031 1312.441406 C 777.414062 1308.894531 774.5 1305.347656 771.585938 1301.792969 L 768.75 1298.363281 L 766.078125 1295.101562 L 763.699219 1292.207031 C 761.460938 1289.144531 759.773438 1286.21875 758.292969 1282.726562 C 758.636719 1277.828125 759.71875 1274.855469 762.234375 1270.636719 C 771.765625 1257.921875 781.753906 1245.609375 791.824219 1233.320312 C 804.851562 1217.367188 817.585938 1201.171875 830.285156 1184.957031 C 832.472656 1182.167969 834.664062 1179.378906 836.859375 1176.59375 C 843.320312 1168.386719 849.773438 1160.175781 856.167969 1151.914062 C 890.246094 1107.894531 890.246094 1107.894531 896.820312 1101.320312 " fill-opacity="1" fill-rule="nonzero"/><path fill="#158c61" d="M 1059.714844 603.890625 C 1064.945312 606.523438 1070.214844 608.738281 1075.652344 610.898438 C 1082.371094 613.617188 1088.742188 616.992188 1094.765625 621.023438 C 1098.324219 623.25 1101.957031 624.992188 1105.75 626.769531 C 1115.007812 631.261719 1123.171875 637.074219 1131.519531 643.03125 C 1135.644531 646.097656 1135.644531 646.097656 1139.25 647.796875 L 1139.25 651.097656 L 1143.613281 652.222656 C 1150.070312 654.757812 1153.554688 657.925781 1158.523438 662.746094 C 1160.25 664.390625 1161.980469 666.03125 1163.714844 667.671875 L 1166.34375 670.15625 C 1170.253906 673.746094 1174.375 677.050781 1178.519531 680.367188 C 1189.011719 688.84375 1198.023438 698.066406 1206.792969 708.28125 C 1209.460938 711.316406 1212.167969 714.285156 1214.925781 717.238281 L 1217.4375 719.933594 C 1219.097656 721.710938 1220.765625 723.484375 1222.441406 725.25 C 1224.457031 727.410156 1226.386719 729.652344 1228.304688 731.90625 L 1228.304688 735.203125 L 1231.601562 735.203125 L 1234.902344 743.449219 L 1238.199219 743.449219 C 1246.507812 752.183594 1253.332031 763.734375 1257.988281 774.785156 C 1258.910156 778.921875 1258.910156 778.921875 1257.988281 783.03125 C 1254.554688 786.300781 1251.417969 788.886719 1247.582031 791.585938 L 1244.605469 793.773438 C 1232.429688 802.683594 1232.429688 802.683594 1226.90625 803.59375 L 1221.707031 802.820312 C 1218.222656 799.84375 1215.613281 797.230469 1212.742188 793.75 L 1210.367188 791.011719 C 1208.800781 789.199219 1207.242188 787.378906 1205.699219 785.546875 C 1202.925781 782.273438 1200.046875 779.101562 1197.175781 775.917969 C 1193.773438 772.019531 1190.613281 767.929688 1187.695312 763.652344 C 1184.253906 758.664062 1180.351562 755.402344 1175.53125 751.695312 L 1172.234375 747.46875 C 1169.210938 743.3125 1169.210938 743.3125 1165.089844 741.1875 C 1160.328125 738.28125 1156.859375 735.054688 1152.960938 731.082031 L 1149.125 727.214844 C 1145.847656 723.660156 1145.847656 723.660156 1142.546875 718.710938 L 1137.601562 717.0625 L 1137.601562 713.765625 L 1134.828125 713.316406 C 1129.910156 711.773438 1126.660156 709.242188 1122.550781 706.136719 C 1120.9375 704.941406 1119.320312 703.746094 1117.65625 702.507812 C 1114.765625 700.347656 1111.878906 698.175781 1108.996094 696.003906 C 1096.261719 686.691406 1082.347656 679.703125 1068.335938 672.535156 L 1068.335938 669.238281 L 1064.339844 668.804688 C 1056.800781 667.25 1050.21875 664.378906 1043.1875 661.300781 L 1034.710938 657.679688 C 1030.628906 655.925781 1026.554688 654.148438 1022.492188 652.347656 C 991.015625 638.839844 951.949219 630.988281 917.757812 631.089844 L 913.941406 631.082031 C 911.292969 631.082031 908.644531 631.085938 906 631.09375 C 901.996094 631.101562 897.996094 631.09375 893.992188 631.082031 C 872.570312 629.910156 872.570312 629.910156 852.292969 634.605469 C 847.277344 635.652344 842.207031 636.386719 837.144531 637.183594 L 832.953125 637.875 C 824.996094 639.136719 817.46875 639.804688 809.417969 639.550781 L 809.417969 642.851562 L 805.667969 643.703125 C 795.617188 646.082031 786.273438 648.871094 776.851562 653.125 C 772.667969 654.554688 769.277344 654.617188 764.890625 654.394531 L 764.890625 657.691406 L 761.828125 659.148438 C 750.191406 664.6875 738.570312 670.25 726.957031 675.832031 L 722.679688 677.882812 C 719.046875 679.625 715.425781 681.382812 711.808594 683.152344 L 708.609375 684.675781 C 702.640625 687.621094 698.546875 690.839844 693.976562 695.625 C 690.960938 697.75 687.902344 699.8125 684.800781 701.808594 C 665.167969 714.628906 665.167969 714.628906 647.796875 730.257812 C 641.371094 736.140625 634.910156 741.941406 628.007812 747.265625 C 622.003906 752.207031 617.507812 758.425781 612.675781 764.476562 C 607.480469 770.84375 601.882812 776.828125 596.261719 782.824219 L 593.308594 785.972656 C 591.449219 787.945312 589.582031 789.910156 587.703125 791.867188 C 585.355469 794.335938 583.085938 796.878906 580.824219 799.429688 L 576.882812 802.820312 C 572.96875 803.324219 572.96875 803.324219 568.636719 802.820312 C 564.976562 800.851562 564.976562 800.851562 561.339844 798.128906 L 557.359375 795.199219 L 553.28125 792.101562 L 549.101562 789 C 545.707031 786.476562 542.324219 783.9375 538.953125 781.378906 C 541.621094 774.425781 545.003906 768.335938 549.054688 762.105469 C 549.714844 761.089844 550.375 760.074219 551.050781 759.023438 C 563.261719 740.449219 578.085938 723.84375 593.941406 708.308594 C 596.730469 705.460938 599.269531 702.492188 601.828125 699.4375 C 634.289062 661.988281 681.734375 628.945312 726.957031 609.660156 L 730.8125 607.988281 C 733.332031 606.894531 735.855469 605.8125 738.375 604.734375 C 741.332031 603.464844 744.285156 602.1875 747.230469 600.894531 C 768.277344 591.832031 789.726562 585.476562 812.097656 580.699219 L 815.578125 579.949219 C 893.355469 563.332031 987.734375 567.492188 1059.714844 603.890625 M 919.167969 143.09375 C 929.941406 147.648438 938.058594 155.609375 945.429688 164.527344 C 952.269531 173.660156 955.316406 183.0625 958.152344 194.070312 L 958.984375 197.308594 C 962.628906 212.417969 963.109375 227.648438 963.097656 243.132812 L 963.097656 248.648438 C 962.941406 272.355469 961.214844 295.976562 959.492188 319.613281 L 959.070312 325.828125 L 958.660156 331.691406 L 958.300781 336.921875 C 957.839844 341.054688 957.839844 341.054688 956.191406 344.351562 C 955.847656 349.019531 955.570312 353.691406 955.367188 358.371094 C 955.011719 366.191406 954.59375 373.980469 953.78125 381.769531 C 952.933594 390.082031 952.160156 398.402344 951.40625 406.722656 L 950.566406 415.898438 C 950.132812 420.617188 949.703125 425.339844 949.273438 430.058594 C 947.523438 449.371094 945.558594 468.609375 943 487.828125 L 942.179688 494.109375 C 939.847656 511.621094 939.847656 511.621094 934.753906 519.164062 C 926.71875 524.519531 917.855469 524.84375 908.367188 525.757812 C 903.175781 526.03125 898 526.136719 892.804688 526.171875 L 889.019531 526.21875 C 881.65625 526.175781 875.679688 525.34375 868.785156 522.460938 C 864.25 519.371094 864.25 519.371094 860.539062 514.214844 C 857.0625 500.277344 856.21875 485.585938 854.929688 471.316406 L 854.316406 464.746094 C 853.78125 458.960938 853.25 453.171875 852.722656 447.386719 C 852.175781 441.390625 851.621094 435.390625 851.066406 429.390625 C 850.203125 420.027344 849.34375 410.664062 848.484375 401.300781 C 847.574219 391.332031 846.648438 381.363281 845.71875 371.394531 C 844.566406 359.085938 843.460938 346.773438 842.398438 334.457031 L 841.910156 328.796875 C 832.121094 212.980469 832.121094 212.980469 847.347656 179.433594 C 854.136719 167.09375 861.839844 154.691406 873.652344 146.675781 C 888.476562 138.460938 903.347656 137.886719 919.167969 143.09375 M 719.960938 183.0625 C 723.988281 184.5 727.980469 185.980469 731.90625 187.679688 L 731.90625 190.980469 L 740.152344 194.277344 L 740.152344 197.574219 L 745.097656 199.226562 C 757.824219 212.464844 762.96875 228.253906 768.1875 245.402344 L 769.246094 248.714844 C 779.796875 281.738281 785.941406 317.457031 789.09375 351.941406 C 789.832031 359.683594 791.230469 367.234375 792.71875 374.859375 C 795.558594 390.4375 797.453125 406.171875 799.519531 421.863281 L 800.199219 426.984375 C 801.078125 433.601562 801.949219 440.222656 802.816406 446.84375 C 803.71875 453.753906 804.582031 460.664062 805.332031 467.59375 C 806.007812 473.8125 806.859375 479.992188 807.765625 486.179688 C 808.367188 490.542969 808.949219 494.90625 809.519531 499.269531 L 809.972656 502.589844 C 811.167969 511.84375 811.816406 521.03125 810.34375 530.296875 C 807.765625 534.003906 807.765625 534.003906 805.054688 535.679688 C 801.074219 537.542969 797.050781 539.089844 792.925781 540.601562 L 787.21875 542.730469 C 758.421875 553.226562 758.421875 553.226562 746.75 552.144531 C 741.511719 549.953125 738.941406 547.746094 735.398438 543.320312 C 730.234375 535.332031 727.855469 526.097656 725 517.101562 C 723.695312 513.089844 722.386719 509.078125 721.074219 505.066406 L 719.066406 498.878906 C 715.953125 489.390625 712.707031 479.949219 709.4375 470.511719 L 707.554688 465.074219 C 704.449219 456.097656 701.207031 447.171875 697.835938 438.292969 C 690.480469 418.9375 684.644531 399.152344 678.832031 379.289062 C 676.421875 371.070312 673.972656 362.863281 671.511719 354.660156 C 643.363281 260.65625 643.363281 260.65625 649.753906 225.8125 C 652.972656 213.453125 658.664062 202.703125 667.484375 193.453125 C 673.875 187.574219 680.507812 182.644531 688.9375 180.125 C 699.835938 177.90625 709.519531 179.628906 719.960938 183.0625 M 1111.75 181.863281 C 1122.476562 185.382812 1131.671875 192.640625 1139.144531 200.976562 C 1142.546875 205.820312 1142.546875 205.820312 1143.890625 210.5625 L 1144.195312 214.066406 L 1147.496094 214.066406 C 1150.460938 227.445312 1151.253906 240.175781 1151.105469 253.851562 L 1151.101562 259.523438 C 1151.046875 269.566406 1151.046875 269.566406 1150.792969 273.4375 L 1149.144531 275.085938 C 1148.683594 278.101562 1148.28125 281.128906 1147.90625 284.15625 C 1145.867188 298.054688 1141.800781 311.183594 1137.601562 324.5625 L 1134.199219 335.488281 L 1132.589844 340.660156 C 1130.855469 346.5 1129.328125 352.371094 1127.808594 358.265625 C 1125.132812 368.484375 1121.792969 378.292969 1118.136719 388.195312 C 1116.296875 393.441406 1114.800781 398.65625 1113.378906 404.03125 C 1110.1875 415.558594 1106.042969 426.648438 1101.832031 437.835938 C 1095.898438 453.617188 1090.242188 469.457031 1084.929688 485.457031 L 1083.105469 490.949219 C 1080.484375 498.902344 1077.945312 506.867188 1075.582031 514.90625 C 1072.285156 526.007812 1067.964844 537.011719 1061.328125 546.582031 C 1056.792969 550.496094 1056.792969 550.496094 1053.65625 551.398438 C 1043.472656 552.679688 1035.78125 551.007812 1026.179688 547.609375 L 1022.1875 546.285156 C 997.4375 537.972656 997.4375 537.972656 990.824219 534.003906 C 987.234375 526.820312 988.957031 517.140625 989.175781 509.269531 C 989.554688 503.019531 990.203125 496.828125 990.929688 490.613281 L 991.5625 485.039062 C 994.917969 456.832031 999.230469 428.742188 1003.425781 400.652344 C 1005.066406 389.640625 1006.683594 378.625 1008.269531 367.609375 C 1027.261719 236.617188 1027.261719 236.617188 1051.574219 205.066406 C 1059.191406 196.113281 1067.0625 188.554688 1077.816406 183.558594 C 1088.789062 179.710938 1100.394531 179.554688 1111.75 181.863281 M 1293.652344 279.210938 C 1296.066406 280.011719 1298.472656 280.828125 1300.867188 281.683594 L 1300.867188 284.980469 L 1305.09375 285.703125 C 1312.132812 288.902344 1315.082031 292.9375 1319.648438 299.027344 C 1324.9375 307.171875 1327.851562 313.785156 1328.53125 323.433594 L 1328.699219 327.242188 L 1328.882812 331.234375 C 1329.210938 342.398438 1327.679688 351.925781 1323.957031 362.492188 L 1321.882812 368.636719 C 1307.5625 409.628906 1283.789062 449.222656 1258.8125 484.53125 C 1251.300781 495.160156 1244.4375 506.183594 1237.566406 517.238281 L 1235.457031 520.628906 C 1234.117188 522.785156 1232.777344 524.941406 1231.441406 527.105469 C 1225.136719 537.257812 1218.46875 547.164062 1211.8125 557.09375 L 1205.101562 567.160156 C 1191.703125 587.261719 1191.703125 587.261719 1188.492188 592.058594 C 1186.480469 595.085938 1184.492188 598.132812 1182.527344 601.195312 L 1179.875 605.3125 L 1177.5625 608.957031 L 1175.53125 611.515625 L 1172.234375 611.515625 L 1168.933594 618.113281 C 1165.121094 618.320312 1165.121094 618.320312 1160.6875 618.113281 L 1155.742188 614.816406 L 1155.742188 611.515625 L 1152.132812 610.28125 C 1147.496094 608.21875 1147.496094 608.21875 1144.042969 605.332031 C 1137.714844 600.433594 1130.910156 596.773438 1123.894531 592.964844 L 1119.714844 590.671875 C 1116.335938 588.816406 1112.953125 586.96875 1109.566406 585.128906 L 1109.566406 581.832031 L 1104.617188 580.183594 C 1113.148438 551.222656 1122.921875 522.851562 1134.402344 494.929688 C 1136.8125 489.019531 1139.113281 483.066406 1141.414062 477.109375 C 1146.144531 464.902344 1150.894531 452.703125 1155.667969 440.515625 C 1156.84375 437.503906 1158.019531 434.492188 1159.191406 431.480469 C 1162.867188 422.101562 1166.632812 412.796875 1170.792969 403.617188 C 1172.882812 398.988281 1174.8125 394.289062 1176.769531 389.601562 C 1207.453125 318.03125 1207.453125 318.03125 1233.253906 294.875 L 1235.738281 292.429688 C 1244.179688 284.5 1253.582031 280.644531 1264.605469 277.410156 C 1274.523438 275.367188 1284.023438 276.308594 1293.652344 279.210938 M 540.046875 278.585938 C 545.242188 280.570312 550.375 282.703125 555.445312 284.980469 L 555.445312 288.28125 L 558.125 288.589844 C 563.832031 290.539062 567.746094 293.972656 571.9375 298.175781 C 576.027344 302.953125 579.773438 307.941406 583.480469 313.015625 C 584.453125 314.332031 585.425781 315.648438 586.433594 317.003906 C 597.625 332.515625 605.753906 349.054688 613.347656 366.539062 C 615.9375 372.503906 618.597656 378.378906 621.554688 384.171875 C 625.214844 391.390625 627.957031 398.859375 630.738281 406.453125 C 632.359375 410.488281 634.167969 414.441406 636.164062 418.304688 C 639.75 425.34375 642.46875 432.570312 645.117188 440.003906 L 648.132812 448.304688 L 649.636719 452.46875 C 651.808594 458.460938 654.019531 464.4375 656.25 470.410156 L 657.476562 473.691406 C 660.527344 481.789062 663.847656 489.753906 667.226562 497.71875 C 670.261719 505.191406 672.863281 512.8125 675.53125 520.425781 C 677.097656 524.71875 678.847656 528.9375 680.78125 533.078125 C 685.578125 543.464844 688.808594 554.472656 692.324219 565.339844 C 693.316406 568.332031 694.316406 571.320312 695.316406 574.308594 L 697.273438 580.183594 C 686.726562 588.363281 676.34375 594.972656 664.277344 600.660156 C 657.40625 604.292969 651.492188 608.90625 645.441406 613.765625 C 640.652344 616.8125 636.910156 617.550781 631.304688 618.113281 C 622.175781 607.230469 614.777344 595.507812 607.34375 583.449219 C 599.832031 571.28125 591.75 559.5 583.617188 547.742188 C 573.363281 532.914062 563.503906 517.859375 553.796875 502.671875 L 550.789062 497.972656 C 548.984375 495.148438 547.1875 492.320312 545.394531 489.484375 C 542.972656 485.671875 540.535156 481.871094 538.078125 478.082031 C 473.207031 377.378906 473.207031 377.378906 471.027344 333.117188 C 471.238281 322.246094 472.804688 312.027344 478.449219 302.605469 C 484.890625 293.261719 492.925781 285.828125 502.671875 280.035156 C 514.644531 275.101562 527.730469 274.816406 540.046875 278.585938 M 1439.605469 424.644531 C 1447.667969 427.59375 1454.75 430.539062 1460.835938 436.703125 C 1466.992188 444.417969 1471.417969 451.871094 1474.03125 461.441406 C 1475.351562 474.273438 1474.726562 486.15625 1469.707031 498.101562 C 1460.777344 516.039062 1449.273438 530.65625 1436.101562 545.550781 L 1432.78125 549.480469 C 1427.542969 555.671875 1422.117188 560.945312 1415.863281 566.09375 C 1412.851562 568.78125 1410.347656 571.625 1407.753906 574.71875 C 1399.878906 583.980469 1390.734375 591.898438 1381.675781 599.972656 L 1378.050781 603.234375 C 1372.359375 608.289062 1366.527344 613.09375 1360.546875 617.804688 C 1352.742188 623.972656 1345.453125 630.601562 1338.207031 637.414062 C 1333.691406 641.339844 1328.945312 644.5 1323.957031 647.796875 C 1322.25 649.390625 1320.601562 651.039062 1319.007812 652.746094 C 1316.863281 654.722656 1314.699219 656.683594 1312.515625 658.621094 L 1309.171875 661.617188 C 1305.96875 664.167969 1302.941406 665.914062 1299.21875 667.585938 L 1299.21875 670.886719 C 1296.511719 673.3125 1293.730469 675.648438 1290.871094 677.894531 C 1285.269531 682.363281 1279.738281 686.847656 1274.378906 691.605469 L 1269.535156 695.625 L 1266.234375 695.625 L 1265.101562 698.613281 C 1262.9375 702.21875 1262.9375 702.21875 1258.609375 705.105469 L 1254.691406 707.167969 C 1250.039062 703.808594 1246.714844 701.003906 1243.640625 696.113281 C 1239.253906 689.328125 1233.355469 684.289062 1227.378906 678.925781 C 1225.171875 676.933594 1222.972656 674.9375 1220.773438 672.933594 L 1217.839844 670.300781 C 1212.984375 665.476562 1210.386719 661.699219 1208.308594 655.117188 C 1207.933594 650.5625 1208.410156 648.03125 1210.300781 643.835938 C 1216.800781 633.316406 1224.535156 623.542969 1232.007812 613.695312 C 1238.035156 605.726562 1243.914062 597.648438 1249.640625 589.457031 C 1265.980469 566.175781 1282.664062 543.214844 1300.054688 520.707031 C 1302.347656 517.730469 1304.625 514.746094 1306.890625 511.75 C 1315.894531 499.890625 1325.277344 488.335938 1335.035156 477.085938 C 1336.964844 474.847656 1338.875 472.585938 1340.78125 470.320312 C 1357.714844 450.691406 1376.96875 434.359375 1401.46875 425.160156 C 1415.15625 421.011719 1425.90625 420.425781 1439.605469 424.644531 M 408.1875 428.605469 C 411.675781 430.152344 415.132812 431.738281 418.5625 433.40625 L 418.5625 436.703125 L 421.28125 437.082031 C 426.636719 438.835938 430.097656 441.894531 434.4375 445.464844 L 439.242188 449.363281 C 443.011719 452.925781 444.359375 455.300781 446.601562 459.792969 C 449.769531 461.605469 449.769531 461.605469 453.195312 463.089844 C 463.355469 471.566406 471.367188 482.5 479.582031 492.777344 L 482.824219 496.738281 C 493.871094 510.3125 504.054688 524.523438 514.3125 538.695312 C 520.828125 547.671875 527.425781 556.589844 534.109375 565.441406 C 540.261719 573.613281 546.28125 581.839844 552.082031 590.269531 C 555.933594 595.71875 559.90625 601.0625 563.890625 606.414062 C 568.800781 613.042969 573.683594 619.6875 578.53125 626.359375 C 579.25 627.332031 579.96875 628.308594 580.710938 629.3125 C 585.132812 635.375 589.1875 641.097656 591.101562 648.421875 C 591.4375 652.476562 591.179688 655.433594 590.078125 659.34375 C 584.824219 670.460938 573.785156 679.171875 565.09375 687.648438 L 562.117188 690.550781 L 559.429688 693.152344 C 556.726562 695.871094 556.726562 695.871094 553.796875 700.570312 L 550.496094 700.570312 L 550.496094 703.871094 C 547.097656 705.417969 547.097656 705.417969 542.25 705.519531 C 539.066406 703.054688 536.503906 700.261719 533.78125 697.300781 C 527.21875 690.199219 519.589844 684.171875 512.199219 677.960938 L 509.34375 675.558594 C 507.484375 673.996094 505.621094 672.433594 503.753906 670.878906 C 498.15625 666.183594 492.996094 661.214844 487.828125 656.042969 C 485.109375 654.34375 482.363281 652.695312 479.582031 651.097656 C 474.945312 647.695312 474.945312 647.695312 471.335938 644.5 L 471.335938 641.203125 L 468.535156 639.945312 C 455.796875 633.089844 444.773438 621.5625 433.820312 612.132812 L 430.753906 609.507812 C 424.660156 604.230469 418.929688 598.714844 413.273438 592.972656 C 410.332031 590.09375 407.296875 587.40625 404.171875 584.730469 C 395.179688 576.957031 386.773438 568.582031 378.367188 560.1875 L 375.8125 557.636719 C 356.472656 538.257812 336.808594 517.351562 327.964844 490.820312 C 325.191406 480.035156 325.273438 470.5625 328.066406 459.792969 C 330.988281 451.078125 334.941406 443.605469 341.054688 436.703125 C 349.390625 429.835938 358.269531 424.789062 368.882812 422.480469 C 383.066406 420.777344 395.015625 423.304688 408.1875 428.605469 M 1548.242188 608.21875 L 1553.191406 611.515625 L 1553.191406 614.816406 L 1556.078125 615.84375 C 1561.296875 619.035156 1563.382812 622.707031 1566.382812 628.007812 C 1569.960938 637.308594 1570.84375 646.203125 1569.683594 656.042969 C 1566.886719 667.035156 1562.726562 677.4375 1554.839844 685.730469 C 1532.367188 706.125 1506.152344 717.625 1478.074219 728.054688 C 1473.035156 730.003906 1468.085938 732.089844 1463.117188 734.210938 C 1452.976562 738.457031 1442.683594 741.859375 1432.183594 745.097656 C 1420.941406 748.625 1409.746094 752.171875 1398.683594 756.230469 C 1389.644531 759.546875 1380.511719 762.15625 1371.226562 764.703125 C 1363.269531 767.121094 1355.566406 770.089844 1347.875 773.25 C 1341.289062 775.863281 1335.980469 776.914062 1328.902344 776.433594 L 1328.902344 779.730469 C 1323.171875 780.648438 1318.117188 780.9375 1312.410156 779.730469 C 1307.621094 775.574219 1305.214844 770.5625 1302.515625 764.890625 L 1300.03125 759.902344 C 1296.773438 752.835938 1294.429688 746.679688 1293.652344 738.914062 C 1297.246094 730.414062 1303.582031 725.9375 1310.761719 720.363281 L 1315.472656 716.671875 C 1318.996094 713.941406 1322.535156 711.226562 1326.089844 708.535156 C 1330.484375 705.1875 1334.855469 701.804688 1339.191406 698.382812 C 1355.738281 685.355469 1372.519531 672.851562 1389.921875 660.992188 L 1392.628906 659.144531 C 1472.359375 604.863281 1472.359375 604.863281 1507.347656 600.277344 C 1522.0625 599.308594 1534.808594 602.203125 1548.242188 608.21875 M 312.191406 604.09375 C 325.550781 608.777344 338.269531 615.15625 350.949219 621.410156 L 350.949219 624.710938 L 356.101562 625.945312 C 362.382812 627.738281 367.214844 630.566406 372.386719 634.605469 L 372.386719 637.902344 L 377.335938 637.902344 L 377.335938 641.203125 L 380.277344 641.820312 C 386.09375 643.460938 390.863281 646.90625 395.886719 650.167969 L 399.136719 652.207031 C 401.828125 653.941406 404.433594 655.808594 407.019531 657.691406 L 407.019531 660.992188 L 410.007812 661.609375 C 413.617188 662.640625 413.617188 662.640625 418.5625 665.9375 L 418.5625 669.238281 L 423.511719 669.238281 L 423.511719 672.535156 C 424.355469 672.914062 425.199219 673.296875 426.066406 673.691406 C 445.746094 684.140625 463.742188 699.058594 481.1875 712.808594 C 484.453125 715.335938 487.742188 717.828125 491.0625 720.285156 C 496.46875 724.410156 501.386719 728.511719 505.96875 733.554688 C 507.574219 737.402344 507.574219 737.402344 507.824219 741.078125 C 506.398438 749.789062 502.191406 757.386719 497.722656 764.890625 L 495.261719 769.171875 C 490.578125 776.828125 490.578125 776.828125 487.828125 779.730469 C 483.273438 781.113281 480.191406 781.5 475.503906 780.574219 L 471.15625 779.132812 L 466.167969 777.503906 L 460.792969 775.6875 L 455.152344 773.828125 C 449.101562 771.832031 443.058594 769.804688 437.011719 767.773438 C 432.875 766.402344 428.738281 765.027344 424.601562 763.660156 C 346.203125 737.632812 346.203125 737.632812 322.914062 728.605469 L 318.621094 726.949219 C 288.898438 715.308594 260.363281 703.464844 239.867188 678.003906 C 234.816406 670.980469 232.5 663.742188 231.597656 655.191406 C 231.417969 645.15625 231.347656 636.320312 235.609375 627.078125 C 240 619.734375 244.648438 614.304688 252 609.867188 C 270.988281 599.667969 291.5625 598.34375 312.191406 604.09375 " fill-opacity="1" fill-rule="nonzero"/><path fill="#158d62" d="M 1266.71875 1267.644531 L 1272.125 1267.613281 L 1277.964844 1267.609375 L 1283.976562 1267.589844 C 1288.175781 1267.582031 1292.371094 1267.578125 1296.570312 1267.578125 C 1302.988281 1267.578125 1309.40625 1267.546875 1315.824219 1267.511719 C 1319.902344 1267.507812 1323.980469 1267.503906 1328.058594 1267.503906 L 1333.871094 1267.46875 C 1350.855469 1267.515625 1350.855469 1267.515625 1358.589844 1271.183594 C 1361.886719 1274.480469 1361.886719 1274.480469 1363.535156 1280.597656 C 1364.097656 1283.164062 1364.648438 1285.726562 1365.183594 1288.292969 L 1366.011719 1292.035156 C 1367.554688 1299.183594 1368.847656 1306.335938 1369.976562 1313.558594 C 1371.871094 1325.15625 1374.699219 1336.476562 1377.554688 1347.871094 C 1380.847656 1361.011719 1383.90625 1374.039062 1385.945312 1387.4375 C 1386.804688 1392.65625 1388.128906 1397.640625 1389.515625 1402.738281 C 1391.953125 1411.898438 1393.867188 1420.015625 1393.222656 1429.503906 C 1381.925781 1430.992188 1370.972656 1431.332031 1359.585938 1431.1875 L 1354.070312 1431.140625 C 1348.101562 1431.085938 1342.132812 1431.019531 1336.164062 1430.953125 L 1323.691406 1430.832031 C 1313.898438 1430.742188 1304.105469 1430.640625 1294.3125 1430.535156 C 1283.152344 1430.417969 1271.992188 1430.308594 1260.832031 1430.203125 C 1237.894531 1429.980469 1214.960938 1429.746094 1192.023438 1429.503906 C 1190.765625 1424.226562 1190.304688 1421.523438 1191.667969 1416.15625 L 1193.777344 1410.539062 C 1194.15625 1409.515625 1194.539062 1408.496094 1194.929688 1407.445312 C 1198.082031 1399.175781 1201.765625 1391.199219 1205.550781 1383.203125 C 1218.121094 1356.183594 1228.992188 1328.167969 1239.222656 1300.179688 L 1240.542969 1296.589844 C 1241.71875 1293.375 1242.882812 1290.15625 1244.042969 1286.933594 C 1246.625 1280.640625 1249.34375 1275.242188 1253.042969 1269.535156 C 1258.058594 1267.859375 1261.46875 1267.664062 1266.71875 1267.644531 M 458.441406 1267.671875 L 462.515625 1267.65625 L 466.894531 1267.664062 L 471.46875 1267.660156 C 474.671875 1267.660156 477.871094 1267.664062 481.074219 1267.671875 C 485.898438 1267.675781 490.722656 1267.671875 495.546875 1267.660156 C 504.519531 1267.652344 513.488281 1267.742188 522.460938 1267.882812 L 526.199219 1267.925781 C 529.425781 1267.972656 532.648438 1268.085938 535.875 1268.207031 L 541.136719 1268.375 L 545.550781 1269.535156 C 550.027344 1274.105469 552.945312 1278.746094 555.386719 1284.628906 L 557 1288.472656 L 558.640625 1292.519531 L 560.378906 1296.722656 C 564.492188 1306.765625 568.242188 1316.894531 571.804688 1327.144531 C 576.132812 1339.445312 581.289062 1351.425781 586.320312 1363.445312 C 587.683594 1366.699219 589.035156 1369.953125 590.378906 1373.210938 L 592.34375 1377.964844 L 594.367188 1382.863281 C 596.09375 1386.90625 597.871094 1390.925781 599.703125 1394.921875 L 601.285156 1398.414062 C 602.304688 1400.660156 603.335938 1402.894531 604.386719 1405.125 C 607.839844 1412.757812 609.160156 1419.5 609.867188 1427.855469 C 605.820312 1429.878906 603.195312 1429.710938 598.667969 1429.710938 L 593.617188 1429.726562 L 588.054688 1429.714844 L 582.210938 1429.726562 C 576.917969 1429.730469 571.621094 1429.730469 566.328125 1429.726562 C 560.792969 1429.722656 555.261719 1429.726562 549.730469 1429.726562 C 540.4375 1429.730469 531.148438 1429.726562 521.859375 1429.71875 C 511.105469 1429.710938 500.351562 1429.710938 489.59375 1429.722656 C 480.375 1429.726562 471.152344 1429.730469 461.933594 1429.726562 C 456.417969 1429.722656 450.90625 1429.722656 445.394531 1429.726562 C 439.253906 1429.730469 433.113281 1429.726562 426.972656 1429.714844 L 421.398438 1429.726562 L 416.355469 1429.710938 L 411.953125 1429.710938 L 408.667969 1429.503906 L 407.019531 1427.855469 C 407.097656 1414.953125 410.632812 1402.527344 413.824219 1390.128906 C 419.207031 1368.609375 423.613281 1346.980469 427.660156 1325.171875 C 429.871094 1313.304688 432.222656 1301.472656 434.984375 1289.714844 L 436.460938 1283.359375 C 438.472656 1277.4375 440.527344 1273.933594 444.949219 1269.535156 C 449.5 1268.015625 453.667969 1267.675781 458.441406 1267.671875 " fill-opacity="1" fill-rule="nonzero"/><path fill="#fefefe" d="M 896.820312 1229.953125 C 900.527344 1229.464844 900.527344 1229.464844 905.066406 1229.953125 C 908.527344 1233.328125 908.527344 1233.328125 911.769531 1237.789062 C 916.382812 1244.039062 916.382812 1244.039062 921.59375 1249.777344 C 925.15625 1253.339844 927.949219 1257.058594 930.835938 1261.1875 C 931.808594 1262.5625 932.78125 1263.9375 933.789062 1265.351562 C 936.398438 1269.527344 938.429688 1273.015625 939.699219 1277.78125 C 935.230469 1291.8125 921.863281 1303.917969 912.253906 1314.78125 C 909.199219 1318.300781 906.296875 1321.9375 903.417969 1325.605469 C 900.589844 1325.25 900.589844 1325.25 896.820312 1323.957031 C 886.414062 1314.734375 878.113281 1303.214844 870.128906 1291.902344 L 867.660156 1288.472656 L 865.417969 1285.207031 L 863.40625 1282.3125 L 862.191406 1279.429688 C 862.710938 1276.078125 862.710938 1276.078125 863.839844 1272.832031 L 865.488281 1267.882812 L 868.785156 1267.882812 L 868.785156 1262.9375 L 872.085938 1262.9375 L 873.109375 1259.503906 C 876.140625 1253.089844 880.480469 1248.722656 885.382812 1243.664062 C 891.824219 1237.339844 891.824219 1237.339844 896.820312 1229.953125 M 510.917969 1325.605469 C 517.78125 1332.511719 520.511719 1340.640625 523.699219 1349.621094 L 525.277344 1353.871094 C 527.625 1360.351562 529.058594 1364.773438 529.058594 1371.78125 L 477.933594 1371.78125 C 476.382812 1365.574219 476.226562 1363.652344 477.523438 1357.765625 L 478.460938 1353.449219 C 480.398438 1345.246094 482.421875 1337.066406 484.53125 1328.902344 C 505.328125 1324.722656 505.328125 1324.722656 510.917969 1325.605469 M 1294.742188 1326.875 C 1297.824219 1326.910156 1297.824219 1326.910156 1300.96875 1326.945312 L 1307.214844 1326.976562 C 1312.414062 1327.253906 1312.414062 1327.253906 1315.710938 1328.902344 C 1316.691406 1331.960938 1316.691406 1331.960938 1317.476562 1335.933594 L 1318.347656 1340.289062 L 1319.214844 1344.882812 L 1320.121094 1349.375 C 1321.648438 1357.191406 1322.308594 1363.671875 1322.308594 1371.78125 L 1272.832031 1371.78125 C 1274.03125 1360.976562 1275.402344 1352.839844 1279.222656 1343.027344 L 1280.503906 1339.496094 C 1281.660156 1336.460938 1283.007812 1333.5 1284.375 1330.554688 C 1289.324219 1327.253906 1289.324219 1327.253906 1294.742188 1326.875 " fill-opacity="1" fill-rule="nonzero"/><path fill="#298261" d="M 1300.867188 992.472656 C 1303.78125 992.640625 1303.78125 992.640625 1307.464844 994.121094 C 1310.632812 998.800781 1310.632812 998.800781 1313.648438 1004.636719 L 1316.714844 1010.445312 C 1319.007812 1015.5625 1319.007812 1015.5625 1319.007812 1020.507812 L 1322.308594 1020.507812 C 1324.445312 1023.476562 1324.445312 1023.476562 1326.84375 1027.621094 L 1329.476562 1032.164062 C 1335.578125 1042.996094 1341.605469 1053.855469 1347.042969 1065.039062 L 1338.800781 1065.039062 L 1336.679688 1060.984375 C 1331.941406 1052.035156 1327.179688 1043.289062 1321.585938 1034.835938 C 1316.6875 1027.308594 1312.515625 1019.558594 1308.496094 1011.542969 L 1306.765625 1008.109375 C 1304.21875 1002.941406 1302.128906 998.089844 1300.867188 992.472656 " fill-opacity="1" fill-rule="nonzero"/><path fill="#268361" d="M 759.941406 656.042969 L 759.941406 659.34375 L 707.167969 685.730469 L 707.167969 680.78125 C 733.355469 666.820312 733.355469 666.820312 746.542969 660.066406 L 751.167969 657.6875 C 754.992188 656.042969 754.992188 656.042969 759.941406 656.042969 " fill-opacity="1" fill-rule="nonzero"/><path fill="#1d8861" d="M 1211.8125 1175.53125 L 1213.460938 1180.480469 C 1211.820312 1184.210938 1211.820312 1184.210938 1209.441406 1188.210938 L 1207.078125 1192.25 L 1205.214844 1195.320312 L 1201.917969 1193.671875 L 1201.917969 1187.074219 C 1204.082031 1183.90625 1204.082031 1183.90625 1206.867188 1180.890625 L 1209.648438 1177.824219 Z M 1211.8125 1175.53125 " fill-opacity="1" fill-rule="nonzero"/><path fill="#298261" d="M 1266.234375 689.027344 L 1271.183594 690.675781 L 1269.535156 695.625 L 1266.234375 695.625 L 1265.101562 698.613281 C 1262.9375 702.21875 1262.9375 702.21875 1258.609375 705.105469 L 1254.691406 707.167969 L 1254.691406 702.21875 C 1257.417969 699.996094 1260.167969 697.796875 1262.9375 695.625 C 1265.101562 692.132812 1265.101562 692.132812 1266.234375 689.027344 " fill-opacity="1" fill-rule="nonzero"/><path fill="#288261" d="M 1246.445312 1030.40625 L 1254.691406 1033.703125 L 1256.339844 1048.546875 L 1253.042969 1048.546875 C 1251.933594 1046.457031 1250.832031 1044.359375 1249.742188 1042.257812 L 1247.886719 1038.722656 C 1246.445312 1035.351562 1246.445312 1035.351562 1246.445312 1030.40625 " fill-opacity="1" fill-rule="nonzero"/><path fill="#278261" d="M 951.246094 1497.117188 L 954.542969 1498.769531 L 952.171875 1502.683594 C 950.6875 1505.183594 949.246094 1507.714844 947.945312 1510.3125 C 944.683594 1511.511719 941.382812 1512.617188 938.050781 1513.609375 C 939.628906 1511.480469 941.207031 1509.347656 942.792969 1507.21875 L 945.460938 1503.625 C 947.945312 1500.417969 947.945312 1500.417969 951.246094 1497.117188 M 1380.027344 1216.761719 L 1384.976562 1216.761719 L 1386.625 1221.707031 L 1384.976562 1223.355469 C 1380.570312 1223.589844 1376.195312 1223.425781 1371.78125 1223.355469 L 1370.132812 1220.058594 L 1380.027344 1220.058594 Z M 1380.027344 1216.761719 " fill-opacity="1" fill-rule="nonzero"/><path fill="#298261" d="M 603.269531 939.699219 L 606.570312 939.699219 C 604.308594 946.289062 601.199219 950.914062 596.675781 956.191406 C 596.675781 949.59375 596.675781 949.59375 599.765625 944.234375 Z M 903.417969 664.289062 C 907.050781 665.636719 909.632812 667.179688 912.289062 670.011719 C 914.324219 672.46875 916.296875 674.972656 918.261719 677.484375 L 913.3125 682.429688 L 912.078125 678 C 909.949219 672.363281 907.375 668.773438 903.417969 664.289062 M 690.675781 692.324219 L 693.976562 692.324219 L 693.976562 695.625 C 691.089844 697.75 691.089844 697.75 687.378906 699.953125 L 683.667969 702.183594 L 680.78125 703.871094 L 680.78125 698.921875 C 685.523438 695.316406 685.523438 695.316406 690.675781 692.324219 " fill-opacity="1" fill-rule="nonzero"/><path fill="#278261" d="M 1211.8125 1175.53125 L 1213.460938 1180.480469 C 1211.09375 1185.738281 1211.09375 1185.738281 1208.515625 1190.375 L 1205.214844 1187.074219 C 1209.957031 1177.386719 1209.957031 1177.386719 1211.8125 1175.53125 " fill-opacity="1" fill-rule="nonzero"/></svg>