<svg xmlns="http://www.w3.org/2000/svg" xmlns:xlink="http://www.w3.org/1999/xlink" width="2400" zoomAndPan="magnify" viewBox="0 0 1800 1799.999925" height="2400" preserveAspectRatio="xMidYMid meet" version="1.0"><rect x="-180" width="2160" fill="#fefefe" y="-179.999992" height="2159.99991" fill-opacity="1"/><path fill="#00a947" d="M 796.617188 698.1875 L 799.46875 699.195312 C 798.398438 700.246094 797.328125 701.296875 796.226562 702.378906 C 788.53125 709.992188 781.035156 717.648438 773.996094 725.871094 C 770.746094 729.640625 767.40625 733.324219 764.0625 737.007812 C 749.179688 753.507812 734.902344 770.507812 720.921875 787.769531 C 713.570312 796.839844 706.171875 805.847656 698.53125 814.671875 C 690.539062 823.898438 682.820312 833.242188 675.449219 842.972656 C 670.054688 850.09375 664.488281 857.066406 658.875 864.019531 C 652.058594 872.496094 645.464844 881.070312 639.132812 889.917969 C 635.726562 894.664062 632.285156 899.386719 628.808594 904.085938 C 625.65625 908.375 622.507812 912.671875 619.371094 916.976562 C 617.632812 919.34375 615.882812 921.703125 614.117188 924.054688 C 604.351562 937.414062 596.757812 952.074219 588.890625 966.59375 C 582.265625 978.820312 575.503906 990.960938 568.628906 1003.050781 C 560.171875 1017.964844 551.859375 1032.957031 543.699219 1048.035156 C 527.769531 1077.421875 510.625 1106.261719 492.695312 1134.476562 C 489.691406 1139.207031 487.054688 1143.421875 485.273438 1148.761719 L 481.933594 1148.761719 L 481.355469 1151.683594 C 479.816406 1156.96875 476.882812 1160.9375 473.835938 1165.472656 C 471.894531 1168.835938 470.980469 1171.707031 470.234375 1175.5 C 475.941406 1175.582031 481.652344 1175.589844 487.363281 1175.527344 C 493.628906 1175.5 493.628906 1175.5 498.433594 1175.890625 C 503.171875 1176.039062 506.023438 1175.832031 510.34375 1173.828125 C 515.210938 1168.066406 518.710938 1161.804688 522.140625 1155.136719 C 524.628906 1150.339844 527.363281 1145.695312 530.085938 1141.03125 L 532.832031 1136.160156 C 535.101562 1132.542969 537.261719 1129.867188 540.425781 1127.035156 C 547.59375 1129.683594 551.746094 1135.136719 556.511719 1140.820312 L 559.175781 1143.964844 C 565.847656 1151.9375 571.953125 1160.222656 577.898438 1168.746094 C 583.257812 1176.40625 589.023438 1183.636719 595.007812 1190.824219 C 599.394531 1196.128906 603.660156 1201.519531 607.902344 1206.941406 L 610.238281 1209.925781 L 614.953125 1215.949219 C 618.792969 1220.855469 622.640625 1225.753906 626.496094 1230.652344 C 631.074219 1236.480469 635.652344 1242.308594 640.222656 1248.140625 C 648.96875 1259.292969 657.769531 1270.394531 666.636719 1281.449219 C 672.992188 1289.378906 679.285156 1297.355469 685.542969 1305.363281 C 689.683594 1310.660156 693.875 1315.917969 698.117188 1321.136719 L 700.929688 1324.609375 C 702.734375 1326.832031 704.546875 1329.050781 706.371094 1331.265625 C 708.484375 1333.898438 710.550781 1336.570312 712.5625 1339.28125 L 712.5625 1342.625 L 715.90625 1342.625 C 718.425781 1345.433594 718.425781 1345.433594 721.128906 1349.101562 L 723.859375 1352.746094 L 725.933594 1355.996094 L 725.933594 1359.339844 L 729.277344 1359.339844 C 731.851562 1362.425781 734.324219 1365.597656 736.695312 1368.84375 C 742.671875 1376.8125 748.808594 1384.570312 755.285156 1392.136719 L 759.921875 1397.5625 L 762.183594 1400.210938 C 774.109375 1414.265625 785.667969 1428.675781 796.941406 1443.253906 C 806.78125 1455.945312 817.027344 1468.183594 827.59375 1480.273438 C 832.644531 1486.058594 837.652344 1491.871094 842.609375 1497.738281 L 846.714844 1502.574219 L 849.605469 1506.40625 L 849.605469 1509.75 L 852.949219 1509.75 C 855.671875 1512.703125 855.671875 1512.703125 858.902344 1516.851562 L 862.519531 1521.46875 C 866.324219 1526.464844 870.027344 1531.527344 873.734375 1536.59375 C 883.832031 1550.277344 883.832031 1550.277344 896.402344 1561.558594 C 899.746094 1561.242188 899.746094 1561.242188 903.085938 1559.886719 C 906.640625 1556.835938 910.050781 1553.628906 913.324219 1550.277344 L 916.226562 1547.34375 C 923.296875 1540.054688 929.578125 1532.382812 935.625 1524.242188 C 940.988281 1517.027344 946.808594 1510.417969 952.890625 1503.800781 C 956.628906 1499.65625 960.160156 1495.394531 963.667969 1491.050781 C 969.613281 1483.707031 975.734375 1476.546875 981.949219 1469.433594 C 998 1451.011719 1013.601562 1432.292969 1028.097656 1412.621094 C 1032.878906 1406.355469 1037.976562 1400.390625 1043.105469 1394.410156 C 1048.585938 1388 1053.859375 1381.457031 1059.035156 1374.796875 C 1066.859375 1364.742188 1074.902344 1354.882812 1083.023438 1345.066406 C 1092.402344 1333.722656 1101.683594 1322.304688 1110.953125 1310.867188 C 1113.71875 1307.464844 1116.488281 1304.066406 1119.265625 1300.675781 C 1128.96875 1288.796875 1138.484375 1276.832031 1147.78125 1264.632812 C 1152.640625 1258.3125 1157.703125 1252.167969 1162.757812 1246.003906 C 1170.894531 1236.078125 1178.683594 1225.945312 1186.320312 1215.628906 C 1193.230469 1206.335938 1200.492188 1197.363281 1207.835938 1188.410156 C 1214.445312 1180.335938 1220.769531 1172.105469 1226.988281 1163.722656 C 1231.101562 1158.1875 1235.246094 1152.679688 1239.425781 1147.195312 L 1243.421875 1141.925781 C 1251.019531 1132.550781 1251.019531 1132.550781 1255.71875 1128.707031 L 1260.023438 1128.359375 C 1264.078125 1130.375 1264.078125 1130.375 1267.347656 1134.953125 C 1268.40625 1136.929688 1269.441406 1138.921875 1270.449219 1140.925781 C 1271.585938 1143.054688 1272.726562 1145.183594 1273.875 1147.304688 L 1275.636719 1150.570312 C 1279.445312 1157.308594 1283.945312 1163.585938 1288.363281 1169.9375 L 1290.816406 1173.828125 L 1290.816406 1177.171875 L 1329.253906 1175.5 C 1327.636719 1167.414062 1326.207031 1164.441406 1321.734375 1157.847656 C 1313.828125 1145.90625 1306.300781 1133.734375 1298.859375 1121.5 L 1297.007812 1118.453125 C 1285.273438 1099.117188 1274.144531 1079.46875 1263.21875 1059.667969 C 1259.738281 1053.382812 1256.226562 1047.113281 1252.691406 1040.859375 L 1249.179688 1034.625 L 1247.460938 1031.574219 L 1239.796875 1017.894531 C 1238.566406 1015.699219 1237.339844 1013.503906 1236.113281 1011.304688 C 1232.792969 1005.390625 1229.367188 999.542969 1225.839844 993.753906 C 1220.28125 984.527344 1215.234375 975.058594 1210.179688 965.550781 C 1195.816406 938.878906 1179.917969 914.4375 1161.699219 890.246094 C 1158.90625 886.527344 1156.128906 882.800781 1153.363281 879.0625 C 1143.796875 866.175781 1133.964844 853.589844 1123.691406 841.25 C 1121.25 838.257812 1118.8125 835.265625 1116.378906 832.269531 C 1108.570312 822.722656 1100.601562 813.308594 1092.617188 803.910156 C 1088 798.46875 1083.394531 793.019531 1078.785156 787.570312 C 1074.917969 782.996094 1071.046875 778.429688 1067.171875 773.867188 L 1062.480469 768.34375 L 1060.140625 765.585938 C 1055.507812 760.097656 1050.960938 754.539062 1046.5 748.914062 C 1033.992188 733.527344 1020.132812 719.019531 1005.886719 705.234375 L 1001.691406 700.867188 L 1001.691406 697.523438 C 1013.621094 698.261719 1023.59375 703.214844 1034.386719 708.074219 L 1040.007812 710.539062 C 1049 714.535156 1057.042969 718.742188 1065.199219 724.261719 C 1073.023438 728.246094 1081.023438 731.867188 1088.992188 735.558594 C 1111.398438 746.066406 1111.398438 746.066406 1120.347656 752.675781 L 1120.347656 756.015625 L 1123.75 757.140625 C 1144.085938 766.25 1160.789062 784.117188 1176.335938 799.679688 L 1180.929688 804.261719 C 1189.621094 813.09375 1197.613281 822.246094 1205.367188 831.910156 C 1210.652344 838.335938 1216.398438 844.265625 1222.191406 850.234375 C 1233.023438 861.578125 1243.890625 873.113281 1252.378906 886.375 L 1252.378906 891.386719 L 1255.71875 891.386719 L 1257.324219 894.351562 C 1261.398438 901.839844 1265.484375 909.320312 1269.664062 916.75 C 1276.367188 928.679688 1282.941406 940.609375 1288.9375 952.910156 C 1296.351562 968.046875 1304.808594 982.5625 1313.257812 997.140625 C 1316.726562 1003.148438 1320.160156 1009.179688 1323.589844 1015.210938 C 1331.8125 1029.652344 1340.136719 1044.027344 1348.597656 1058.328125 C 1351.339844 1062.964844 1354.0625 1067.613281 1356.757812 1072.273438 C 1364.792969 1086.105469 1373.109375 1099.660156 1382.0625 1112.925781 C 1384.039062 1115.902344 1385.90625 1118.957031 1387.75 1122.019531 L 1387.75 1127.035156 L 1391.09375 1127.035156 L 1393.851562 1132.0625 C 1401.527344 1145.921875 1409.550781 1159.421875 1418.25 1172.667969 C 1421.082031 1177.03125 1422.6875 1179.613281 1423.578125 1184.691406 C 1422.457031 1193.632812 1417.941406 1199.976562 1412.816406 1207.253906 C 1409.164062 1211.945312 1405.496094 1216.585938 1401.121094 1220.625 L 1397.777344 1220.625 L 1397.777344 1223.96875 C 1378.617188 1233.546875 1344.125 1227.425781 1323.40625 1227.308594 C 1315.3125 1227.265625 1307.21875 1227.230469 1299.121094 1227.207031 L 1293.558594 1227.164062 C 1284.652344 1227.132812 1276.191406 1227.398438 1267.417969 1228.980469 L 1266.222656 1232.523438 C 1263.703125 1238.175781 1260.285156 1242.679688 1256.453125 1247.46875 L 1251.933594 1253.226562 L 1249.628906 1256.160156 C 1246.121094 1260.660156 1242.726562 1265.242188 1239.324219 1269.824219 C 1233.53125 1277.554688 1227.636719 1285.015625 1221.21875 1292.242188 C 1214.472656 1299.851562 1208.242188 1307.675781 1202.242188 1315.886719 C 1196.511719 1323.679688 1190.683594 1331.199219 1184.191406 1338.375 C 1181.816406 1341.132812 1181.816406 1341.132812 1180.515625 1345.96875 L 1177.171875 1345.96875 L 1175.917969 1349.625 C 1173.246094 1355.632812 1169.652344 1360.289062 1164.890625 1364.828125 C 1161.101562 1368.761719 1157.914062 1373.058594 1154.609375 1377.40625 L 1150.105469 1383.296875 L 1147.757812 1386.363281 C 1132.796875 1405.890625 1117.222656 1424.773438 1100.816406 1443.109375 C 1096.214844 1448.324219 1092.09375 1453.808594 1087.96875 1459.402344 C 1083.15625 1465.914062 1078.207031 1472.050781 1072.71875 1477.996094 C 1065.945312 1485.34375 1060.054688 1493.121094 1054.140625 1501.160156 C 1048.460938 1508.640625 1042.371094 1515.738281 1036.257812 1522.867188 C 1032.195312 1527.609375 1028.269531 1532.453125 1024.359375 1537.324219 C 1017.914062 1545.253906 1011.074219 1552.714844 1004.09375 1560.164062 C 998.933594 1565.703125 993.988281 1571.421875 989.261719 1577.332031 C 982.507812 1585.742188 975.292969 1593.625 967.898438 1601.464844 C 963.21875 1606.429688 958.632812 1611.449219 954.160156 1616.601562 C 945.121094 1626.988281 935.640625 1636.957031 926.160156 1646.941406 C 923.476562 1649.789062 920.808594 1652.648438 918.15625 1655.523438 L 913.847656 1660.058594 L 910.183594 1663.96875 C 906.429688 1666.847656 906.429688 1666.847656 901.332031 1668.386719 C 896.402344 1668.519531 896.402344 1668.519531 893.203125 1666.828125 L 890.34375 1664.023438 L 886.945312 1660.761719 L 883.03125 1656.820312 C 881.398438 1655.226562 879.765625 1653.632812 878.128906 1652.039062 C 868.746094 1642.851562 859.722656 1633.460938 851.277344 1623.394531 C 848.285156 1619.84375 845.292969 1616.292969 842.296875 1612.742188 L 839.898438 1609.898438 C 831.535156 1600.007812 822.84375 1590.421875 814.105469 1580.855469 C 806.417969 1572.398438 799.070312 1563.75 791.875 1554.871094 C 779.386719 1539.636719 766.371094 1524.820312 753.335938 1510.054688 C 746.433594 1502.199219 739.667969 1494.230469 733.039062 1486.144531 L 729.984375 1482.433594 C 719.539062 1469.707031 709.320312 1456.800781 699.332031 1443.710938 C 694.445312 1437.316406 689.414062 1431.257812 683.945312 1425.351562 C 676.121094 1416.796875 669.195312 1407.671875 662.21875 1398.429688 C 655.507812 1389.5625 648.535156 1381.015625 641.359375 1372.519531 C 634.921875 1364.757812 628.835938 1356.734375 622.734375 1348.710938 C 618.578125 1343.253906 614.386719 1337.824219 610.195312 1332.390625 C 606.722656 1327.875 603.253906 1323.351562 599.8125 1318.808594 C 592.851562 1309.644531 585.746094 1300.6875 578.238281 1291.964844 C 570.550781 1283.027344 563.445312 1273.738281 556.425781 1264.269531 C 550.320312 1256.058594 544.082031 1247.953125 537.710938 1239.949219 L 535.132812 1236.683594 C 530.945312 1231.203125 530.945312 1231.203125 525.382812 1227.308594 C 521.84375 1227.144531 518.300781 1227.054688 514.757812 1227.046875 L 511.453125 1227.019531 C 509.085938 1227.003906 506.714844 1226.988281 504.34375 1226.976562 C 500.582031 1226.957031 496.824219 1226.925781 493.0625 1226.886719 C 482.375 1226.785156 471.683594 1226.695312 460.992188 1226.636719 C 454.453125 1226.605469 447.917969 1226.542969 441.378906 1226.46875 C 438.894531 1226.445312 436.40625 1226.433594 433.921875 1226.425781 C 430.425781 1226.417969 426.9375 1226.378906 423.445312 1226.335938 L 417.4375 1226.292969 C 410.582031 1225.503906 406.1875 1223.75 400.039062 1220.625 C 395.476562 1216.101562 395.476562 1216.101562 391.371094 1210.910156 L 387.226562 1205.757812 L 383.328125 1200.570312 L 379.484375 1195.535156 C 376.644531 1190.542969 376.644531 1190.542969 375.699219 1185.769531 C 377.066406 1178.167969 380.816406 1172.953125 385.105469 1166.621094 C 386.949219 1163.808594 388.785156 1160.988281 390.621094 1158.167969 L 393.601562 1153.597656 C 399.148438 1144.933594 404.386719 1136.085938 409.652344 1127.242188 C 415.8125 1116.902344 421.996094 1106.582031 428.328125 1096.34375 C 435.46875 1084.773438 442.375 1073.070312 449.238281 1061.332031 L 451.121094 1058.121094 C 459.84375 1043.210938 468.5 1028.265625 476.867188 1013.152344 C 478.738281 1009.785156 480.613281 1006.417969 482.492188 1003.054688 C 489.207031 991.03125 495.851562 978.972656 502.433594 966.875 C 544.15625 890.128906 544.15625 890.128906 567.164062 862.976562 L 571.5 857.761719 C 581.035156 846.316406 590.9375 835.28125 601.097656 824.394531 C 604.5625 820.652344 607.945312 816.835938 611.246094 812.945312 C 645.421875 773.835938 687.085938 748.292969 732.621094 724.261719 L 736.121094 722.394531 C 748.914062 715.582031 762.09375 709.816406 775.445312 704.207031 L 780.316406 702.128906 L 784.914062 700.238281 L 789.023438 698.527344 C 792.785156 697.523438 792.785156 697.523438 796.617188 698.1875 " fill-opacity="1" fill-rule="nonzero"/><path fill="#00772a" d="M 896.402344 854.621094 C 901.070312 854.132812 901.070312 854.132812 904.757812 854.621094 L 908.101562 861.304688 L 911.441406 861.304688 C 914.367188 864.691406 917.097656 868.089844 919.800781 871.648438 L 922.238281 874.8125 C 923.925781 877.003906 925.605469 879.195312 927.285156 881.390625 C 929.75 884.605469 932.25 887.792969 934.753906 890.976562 L 939.332031 896.820312 L 941.527344 899.59375 C 943.25 901.835938 944.921875 904.113281 946.539062 906.429688 L 946.539062 909.773438 L 949.882812 909.773438 C 952.605469 912.78125 952.605469 912.78125 955.835938 916.980469 C 960.746094 923.273438 965.699219 929.511719 970.773438 935.675781 C 975.402344 941.324219 980.007812 946.992188 984.558594 952.703125 C 991.566406 961.492188 998.660156 970.210938 1005.757812 978.929688 C 1007.511719 981.085938 1009.265625 983.246094 1011.015625 985.40625 C 1013.121094 987.984375 1015.242188 990.546875 1017.382812 993.09375 L 1020.074219 996.675781 L 1020.074219 1000.019531 L 1025.089844 1001.691406 C 1027.371094 1004.203125 1027.371094 1004.203125 1029.894531 1007.644531 C 1033.902344 1013.015625 1038.046875 1018.28125 1042.324219 1023.445312 L 1045.285156 1027.023438 C 1047.261719 1029.402344 1049.242188 1031.773438 1051.234375 1034.136719 L 1054.007812 1037.5 L 1056.515625 1040.496094 C 1058.511719 1043.472656 1058.511719 1043.472656 1059.316406 1047.082031 L 1060.183594 1050.15625 L 1065.199219 1051.828125 C 1067.964844 1054.824219 1067.964844 1054.824219 1071.046875 1058.828125 L 1074.617188 1063.410156 L 1078.566406 1068.539062 C 1081.519531 1072.34375 1084.480469 1076.136719 1087.449219 1079.925781 L 1089.792969 1082.925781 C 1096.636719 1091.628906 1103.761719 1100.074219 1110.941406 1108.5 C 1145.976562 1149.609375 1145.976562 1149.609375 1147.925781 1159.832031 C 1146.65625 1168.390625 1142.304688 1173.765625 1137.0625 1180.515625 C 1131.863281 1186.878906 1126.542969 1193.128906 1121.167969 1199.34375 C 1118.621094 1202.3125 1116.09375 1205.292969 1113.582031 1208.285156 L 1111.078125 1211.261719 L 1106.335938 1216.902344 C 1098.660156 1226.003906 1098.660156 1226.003906 1095.28125 1228.980469 C 1091.417969 1230.023438 1091.417969 1230.023438 1086.925781 1228.980469 C 1082.128906 1224.703125 1078.519531 1219.472656 1074.710938 1214.332031 C 1068.808594 1206.40625 1062.699219 1198.695312 1056.425781 1191.066406 C 1046.859375 1179.363281 1037.585938 1167.464844 1028.429688 1155.445312 C 1019.289062 1143.496094 1009.800781 1131.835938 1000.300781 1120.171875 C 994.03125 1112.472656 987.777344 1104.757812 981.636719 1096.953125 L 978.777344 1093.375 L 976.621094 1090.265625 L 976.621094 1086.925781 L 973.28125 1086.925781 C 970.496094 1083.664062 967.8125 1080.324219 965.238281 1076.898438 C 963.574219 1074.738281 961.914062 1072.582031 960.25 1070.425781 L 957.601562 1066.996094 C 953.136719 1061.273438 948.527344 1055.667969 943.925781 1050.050781 C 937.230469 1041.851562 930.628906 1033.597656 924.1875 1025.191406 L 920.160156 1019.957031 C 917.765625 1016.796875 915.421875 1013.601562 913.121094 1010.371094 L 910.085938 1006.179688 C 909.25 1004.980469 908.410156 1003.78125 907.546875 1002.546875 C 906.625 1001.710938 905.707031 1000.878906 904.757812 1000.019531 C 900.671875 998.878906 900.671875 998.878906 896.402344 1000.019531 C 892.457031 1003.191406 892.457031 1003.191406 888.988281 1007.539062 L 885.023438 1012.195312 C 881.234375 1016.871094 877.570312 1021.644531 874.027344 1026.511719 C 869.394531 1032.683594 864.363281 1038.539062 859.390625 1044.445312 C 856.023438 1048.378906 856.023438 1048.378906 854.621094 1053.5 L 846.265625 1061.855469 C 844.703125 1064.230469 843.140625 1066.601562 841.589844 1068.976562 C 837.632812 1074.691406 833.070312 1079.929688 828.613281 1085.253906 C 821.25 1094.113281 813.960938 1103.011719 806.886719 1112.097656 C 799.296875 1121.839844 791.542969 1131.441406 783.722656 1141 C 777.808594 1148.246094 772.046875 1155.589844 766.496094 1163.125 L 764.375 1165.472656 L 761.03125 1165.472656 L 759.683594 1169.207031 C 757.714844 1173.769531 755.550781 1177.046875 752.480469 1180.933594 L 749.402344 1184.847656 L 746.199219 1188.871094 L 743.03125 1192.890625 C 737.921875 1199.375 732.773438 1205.832031 727.605469 1212.269531 L 724.746094 1215.890625 C 720.441406 1221.113281 716.664062 1225.167969 710.894531 1228.773438 L 705.878906 1228.980469 C 694.648438 1221.855469 687.363281 1210.464844 679.507812 1199.9375 C 676.53125 1195.984375 673.457031 1192.109375 670.367188 1188.242188 L 667.144531 1184.214844 C 664.304688 1180.765625 661.351562 1177.457031 658.355469 1174.144531 C 655.578125 1170.886719 653.988281 1168.625 652.296875 1164.636719 C 652.445312 1158.675781 654.644531 1153.941406 657.414062 1148.761719 C 660.511719 1144.332031 663.945312 1140.238281 667.441406 1136.121094 C 669.402344 1133.761719 671.363281 1131.402344 673.324219 1129.039062 L 676.289062 1125.476562 C 680.507812 1120.363281 684.578125 1115.136719 688.644531 1109.902344 C 695.585938 1101.003906 702.75 1092.320312 710.011719 1083.679688 C 714.550781 1078.1875 718.945312 1072.597656 723.324219 1066.976562 C 730.199219 1058.136719 737.3125 1049.539062 744.585938 1041.027344 C 749.699219 1035.027344 754.597656 1028.90625 759.394531 1022.652344 C 770.421875 1008.488281 781.925781 994.679688 793.367188 980.839844 C 805.316406 966.386719 816.980469 951.734375 828.484375 936.925781 C 837.492188 925.339844 846.640625 913.9375 856.195312 902.800781 C 861.503906 896.578125 866.511719 890.183594 871.4375 883.660156 C 876.949219 876.417969 882.585938 869.316406 888.570312 862.457031 L 892.519531 857.878906 Z M 896.402344 854.621094 " fill-opacity="1" fill-rule="nonzero"/><path fill="#01a947" d="M 896.402344 657.414062 C 900.246094 657.5625 900.246094 657.5625 904.757812 659.085938 C 909.148438 662.664062 909.148438 662.664062 913.820312 667.375 L 916.375 669.933594 C 918.15625 671.726562 919.933594 673.527344 921.699219 675.335938 C 924.351562 678.039062 927.015625 680.730469 929.695312 683.402344 C 940.484375 694.265625 950.371094 705.589844 959.910156 717.578125 C 963.1875 721.503906 966.492188 725.402344 969.832031 729.277344 L 972.382812 732.25 C 977.703125 738.414062 983.117188 744.492188 988.632812 750.480469 C 996.703125 759.28125 1004.230469 768.449219 1011.71875 777.742188 L 1019.03125 786.621094 C 1024.578125 793.417969 1030.042969 800.277344 1035.429688 807.199219 C 1046.203125 820.996094 1057.378906 834.453125 1068.539062 847.9375 C 1077.023438 858.203125 1085.417969 868.542969 1093.714844 878.960938 L 1096.195312 882.039062 C 1098.183594 884.550781 1100.082031 887.128906 1101.964844 889.71875 L 1101.964844 893.058594 L 1105.308594 893.058594 C 1107.925781 896.140625 1110.429688 899.308594 1112.828125 902.566406 L 1117.308594 908.519531 L 1119.640625 911.636719 C 1122.011719 914.765625 1124.410156 917.867188 1126.839844 920.949219 L 1129.164062 923.921875 C 1130.652344 925.816406 1132.140625 927.707031 1133.636719 929.59375 C 1135.386719 931.863281 1137.085938 934.167969 1138.734375 936.511719 L 1138.734375 939.855469 L 1142.074219 939.855469 C 1144.425781 943.152344 1146.652344 946.53125 1148.761719 949.988281 C 1150.113281 952.152344 1151.46875 954.3125 1152.828125 956.476562 L 1154.960938 959.878906 C 1157.707031 964.179688 1160.585938 968.382812 1163.46875 972.59375 C 1177.820312 993.605469 1189.929688 1015.550781 1196.601562 1040.234375 L 1197.695312 1044.167969 C 1202.789062 1062.734375 1203.800781 1081.21875 1200.570312 1100.292969 C 1198.832031 1104.171875 1198.832031 1104.171875 1197.226562 1106.980469 C 1194.320312 1106.59375 1194.320312 1106.59375 1190.542969 1105.308594 C 1180.496094 1096.144531 1172.46875 1084.789062 1164.429688 1073.886719 C 1153.65625 1059.375 1142.34375 1045.332031 1130.59375 1031.605469 C 1124.171875 1024.070312 1118.042969 1016.324219 1111.957031 1008.515625 C 1104.023438 998.351562 1095.855469 988.390625 1087.632812 978.457031 C 1075.773438 964.128906 1064.027344 949.738281 1052.585938 935.078125 C 1046.820312 927.710938 1040.996094 920.386719 1035.117188 913.113281 L 1031.65625 908.824219 C 1023.707031 899.039062 1015.5625 889.445312 1007.328125 879.898438 C 1001.410156 873.011719 995.699219 865.992188 990.0625 858.871094 C 980.554688 847.03125 970.570312 835.570312 960.675781 824.054688 C 935.011719 794.167969 935.011719 794.167969 925.066406 780.984375 C 914.675781 766.1875 914.675781 766.1875 901.414062 754.34375 C 896.976562 754.480469 896.976562 754.480469 893.058594 756.015625 C 891.277344 759.023438 891.277344 759.023438 889.71875 762.703125 L 881.359375 771.058594 L 879.691406 776.070312 L 876.347656 776.070312 L 875.40625 779.414062 C 872.644531 785.175781 869.175781 788.980469 864.890625 793.671875 C 859.667969 799.683594 854.949219 806.0625 850.238281 812.476562 C 848.433594 814.886719 846.519531 817.214844 844.59375 819.523438 L 841.25 819.523438 C 840.800781 820.503906 840.34375 821.480469 839.878906 822.488281 C 837.921875 826.183594 835.792969 829.058594 833.109375 832.253906 L 830.230469 835.710938 L 827.148438 839.371094 C 819.546875 848.488281 812.0625 857.664062 804.796875 867.050781 C 798.398438 875.289062 791.683594 883.101562 784.625 890.789062 C 778.671875 897.417969 773.214844 904.4375 767.714844 911.441406 C 760.519531 920.558594 753.207031 929.550781 745.675781 938.390625 C 730.355469 956.386719 715.59375 974.855469 700.867188 993.335938 C 681.992188 1016.996094 681.992188 1016.996094 673.289062 1027.59375 C 667.464844 1034.699219 661.6875 1041.835938 655.949219 1049.007812 L 653.378906 1052.21875 C 649.191406 1057.449219 645.042969 1062.714844 640.9375 1068.011719 C 632.351562 1079.089844 623.542969 1089.71875 613.953125 1099.949219 C 610.402344 1103.691406 610.402344 1103.691406 607.277344 1108.652344 C 604.0625 1107.554688 604.0625 1107.554688 600.589844 1105.308594 C 594.867188 1088.246094 596.792969 1069.945312 599.546875 1052.558594 L 600.183594 1048.453125 C 600.757812 1045.097656 601.496094 1041.773438 602.261719 1038.457031 L 605.605469 1036.785156 L 603.933594 1031.773438 L 607.277344 1031.773438 L 607.902344 1029.058594 C 620.203125 982.316406 656.523438 941.234375 686.789062 904.726562 C 691.976562 898.34375 696.988281 891.835938 702.015625 885.328125 C 710.90625 873.820312 720.035156 862.539062 729.328125 851.351562 C 735.027344 844.480469 740.582031 837.492188 745.988281 830.386719 C 760.929688 810.769531 776.894531 791.960938 793 773.296875 C 796.992188 768.65625 800.953125 763.988281 804.882812 759.292969 C 812.683594 750.011719 820.699219 740.992188 828.90625 732.066406 C 832.789062 727.722656 836.460938 723.273438 840.101562 718.726562 C 847.839844 709.132812 856.203125 700.195312 864.636719 691.21875 C 868.496094 687.101562 872.257812 682.902344 875.929688 678.617188 C 880.246094 673.675781 884.609375 668.785156 889.089844 663.992188 L 892.707031 660.070312 Z M 896.402344 657.414062 " fill-opacity="1" fill-rule="nonzero"/><path fill="#00772a" d="M 896.402344 1103.636719 C 899.953125 1103.742188 899.953125 1103.742188 904.757812 1105.308594 C 908.566406 1108.859375 911.882812 1112.683594 914.785156 1117.007812 L 914.785156 1120.347656 L 918.128906 1120.347656 C 920.535156 1123.257812 922.8125 1126.273438 925.023438 1129.332031 L 931.1875 1137.738281 C 933.949219 1141.453125 936.839844 1145.058594 939.75 1148.65625 C 944.863281 1154.988281 949.851562 1161.410156 954.789062 1167.875 C 961.269531 1176.347656 967.929688 1184.648438 974.714844 1192.878906 C 984.378906 1204.625 993.753906 1216.597656 1003.128906 1228.570312 C 1007.902344 1234.652344 1012.75 1240.671875 1017.671875 1246.632812 C 1020.144531 1249.660156 1022.617188 1252.6875 1025.089844 1255.71875 L 1027.332031 1258.460938 C 1029.664062 1261.328125 1031.980469 1264.210938 1034.28125 1267.105469 L 1036.476562 1269.777344 C 1039.847656 1274.0625 1041.8125 1277.496094 1043.242188 1282.78125 C 1043.472656 1287.472656 1043.472656 1287.472656 1041.277344 1292.695312 C 1036.21875 1300.683594 1029.800781 1307.761719 1023.660156 1314.925781 C 1020.09375 1318.871094 1020.09375 1318.871094 1018.402344 1322.570312 L 1015.0625 1322.570312 L 1013.914062 1325.183594 C 1010.914062 1330.75 1007.539062 1336.1875 1003.363281 1340.953125 L 1000.019531 1340.953125 L 998.871094 1344.609375 C 996.242188 1350.242188 992.753906 1353.339844 988.320312 1357.667969 C 986.074219 1361 983.847656 1364.339844 981.636719 1367.695312 C 979.441406 1369.957031 977.214844 1372.1875 974.949219 1374.378906 L 973.28125 1377.722656 L 969.9375 1377.722656 L 968.632812 1380.515625 C 966.292969 1384.980469 963.605469 1389.035156 960.746094 1393.179688 L 957.664062 1397.699219 L 954.894531 1401.121094 L 951.554688 1401.121094 L 950.613281 1404.460938 C 947.761719 1410.40625 944.027344 1414.46875 939.625 1419.328125 C 934.878906 1424.691406 930.710938 1430.441406 926.484375 1436.214844 C 908.867188 1459.894531 908.867188 1459.894531 903.085938 1462.957031 C 898.074219 1462.957031 898.074219 1462.957031 893.058594 1461.285156 C 889.089844 1457.210938 889.089844 1457.210938 886.375 1452.929688 L 886.375 1449.585938 L 883.03125 1449.585938 C 880.726562 1446.820312 878.558594 1443.941406 876.453125 1441.019531 C 875.09375 1439.164062 873.730469 1437.304688 872.363281 1435.453125 L 870.195312 1432.496094 C 866.589844 1427.644531 862.855469 1422.890625 859.113281 1418.144531 L 856.792969 1415.199219 C 850.238281 1406.917969 843.652344 1398.660156 837.035156 1390.425781 C 831.5 1383.511719 826.011719 1376.5625 820.570312 1369.574219 C 813.675781 1360.75 806.609375 1352.085938 799.46875 1343.460938 C 790.621094 1332.789062 781.941406 1321.980469 773.429688 1311.035156 C 770.890625 1307.78125 768.320312 1304.554688 765.710938 1301.359375 L 762.492188 1297.398438 L 759.765625 1294.101562 C 757.242188 1290.113281 756.371094 1287.164062 756.015625 1282.460938 C 761.125 1269.691406 773.425781 1258.167969 782.117188 1247.59375 C 787.328125 1241.246094 792.429688 1234.824219 797.484375 1228.355469 C 802.570312 1221.851562 807.671875 1215.363281 812.839844 1208.925781 C 818.828125 1201.464844 824.738281 1193.9375 830.636719 1186.40625 C 836.398438 1179.082031 842.199219 1171.789062 848.042969 1164.53125 C 854.335938 1156.703125 860.535156 1148.800781 866.632812 1140.820312 C 873.050781 1132.433594 879.632812 1124.210938 886.359375 1116.066406 C 889.742188 1111.953125 893.089844 1107.808594 896.402344 1103.636719 " fill-opacity="1" fill-rule="nonzero"/><path fill="#01a948" d="M 1050.15625 593.90625 C 1052.964844 595.539062 1055.75 597.210938 1058.511719 598.917969 C 1061.1875 600.089844 1063.863281 601.253906 1066.558594 602.378906 C 1092.046875 613.214844 1115.550781 625.570312 1137.757812 642.09375 C 1141.679688 644.984375 1145.691406 647.75 1149.703125 650.519531 C 1161.148438 658.535156 1161.148438 658.535156 1165.472656 662.425781 L 1165.472656 665.769531 L 1168.417969 667.101562 C 1172.34375 669.210938 1175.230469 671.558594 1178.527344 674.542969 C 1182.765625 678.363281 1187.082031 682.089844 1191.480469 685.722656 C 1196.835938 690.289062 1201.320312 695.359375 1205.855469 700.730469 C 1210.109375 705.550781 1214.757812 709.921875 1219.457031 714.308594 C 1222.296875 717.578125 1222.296875 717.578125 1223.933594 721.945312 L 1225.636719 725.933594 C 1227.859375 727.066406 1230.085938 728.179688 1232.324219 729.277344 C 1235.386719 732.675781 1238.3125 736.195312 1241.097656 739.828125 L 1243.511719 742.960938 C 1248.828125 749.972656 1253.957031 757.09375 1258.75 764.476562 L 1262.125 769.65625 L 1264.078125 774.402344 C 1263.300781 778.765625 1263.300781 778.765625 1260.734375 782.757812 C 1256.625 786.320312 1256.625 786.320312 1251.75 789.652344 L 1246.90625 793.007812 L 1242.351562 796.125 L 1239.046875 799.039062 C 1235.664062 801.140625 1235.664062 801.140625 1230.894531 802.113281 C 1225.636719 801.140625 1225.636719 801.140625 1223.042969 799.222656 C 1220.226562 796.464844 1217.652344 793.585938 1215.085938 790.589844 L 1212.207031 787.359375 C 1206.722656 781.164062 1201.464844 774.796875 1196.289062 768.34375 C 1185.046875 754.332031 1172.09375 741.804688 1158.390625 730.210938 C 1155.523438 727.675781 1153.015625 724.996094 1150.433594 722.175781 C 1142.59375 714.15625 1133.027344 708.308594 1123.75 702.113281 C 1119.175781 699.039062 1114.707031 695.816406 1110.347656 692.445312 C 1103.789062 687.480469 1096.957031 683.386719 1089.742188 679.453125 L 1085.824219 677.300781 C 1025.769531 644.765625 964.34375 628.46875 895.890625 627.414062 C 892.199219 627.34375 888.503906 627.191406 884.8125 627.011719 C 855.1875 625.910156 824.472656 634.386719 796.128906 642.371094 L 792.433594 643.398438 C 768.476562 650.238281 746.394531 661.160156 724.261719 672.453125 L 720.277344 674.488281 C 701.378906 684.265625 684.425781 696.464844 667.441406 709.222656 L 662.667969 712.738281 C 655.316406 718.273438 648.925781 724.292969 642.527344 730.894531 C 638.796875 734.515625 634.882812 737.679688 630.777344 740.871094 C 619.214844 749.957031 609.300781 760.039062 600.066406 771.476562 C 594.113281 778.847656 588.0625 786.101562 581.789062 793.203125 L 579.28125 796.167969 C 576.855469 798.871094 576.855469 798.871094 572.179688 802.8125 C 567.359375 802.472656 564.273438 801.40625 560.113281 798.957031 L 556.425781 796.226562 L 552.394531 793.269531 L 548.257812 790.171875 L 544.027344 787.054688 C 540.589844 784.523438 537.160156 781.976562 533.742188 779.414062 C 536.515625 772.136719 540.15625 765.902344 544.5 759.464844 L 546.734375 756.144531 C 559.320312 737.703125 573 721.261719 589.007812 705.703125 C 592.859375 701.945312 596.511719 698 599.964844 693.867188 C 639.195312 647.871094 702.222656 611.214844 758.285156 590.40625 C 773.953125 585.035156 790.066406 581.074219 806.15625 577.191406 L 810.679688 576.09375 C 888.078125 557.667969 976.191406 564.230469 1050.15625 593.90625 " fill-opacity="1" fill-rule="nonzero"/><path fill="#00a947" d="M 913.847656 131.285156 C 926.554688 135.945312 935.425781 142.5625 944.285156 152.753906 C 946.601562 156.128906 947.507812 158.722656 948.210938 162.722656 L 951.554688 162.722656 C 966.214844 207.492188 963.898438 250.878906 960.019531 297.160156 L 959.671875 301.375 C 959.457031 303.992188 959.234375 306.609375 959.003906 309.222656 C 958.503906 315.152344 958.183594 321.007812 958.210938 326.960938 C 958.230469 331.535156 958.121094 335.792969 957.566406 340.3125 L 957.132812 344 L 956.671875 347.707031 C 955.632812 356.230469 954.761719 364.726562 954.148438 373.289062 C 953.296875 384.492188 952.160156 395.648438 950.925781 406.816406 L 950.269531 412.824219 L 948.90625 425.269531 C 948.210938 431.601562 947.515625 437.9375 946.828125 444.277344 L 945.496094 456.433594 L 944.871094 462.136719 C 943.894531 470.988281 942.828125 479.804688 941.527344 488.617188 C 941.304688 491.15625 941.097656 493.699219 940.898438 496.242188 C 940.15625 502.949219 938.539062 507.933594 934.839844 513.6875 C 932.167969 516.421875 932.167969 516.421875 928.15625 518.699219 C 923.5 519.210938 919.230469 519.441406 914.578125 519.425781 L 910.609375 519.449219 C 907.84375 519.460938 905.078125 519.457031 902.3125 519.445312 C 898.085938 519.429688 893.863281 519.476562 889.636719 519.53125 C 886.949219 519.535156 884.257812 519.535156 881.570312 519.527344 L 877.75 519.585938 C 874.164062 519.539062 874.164062 519.539062 867.992188 518.699219 C 863.800781 515.515625 863.800781 515.515625 861.304688 512.015625 L 861.304688 508.671875 L 857.964844 507 C 857.292969 502.722656 856.851562 498.585938 856.527344 494.277344 L 856.175781 490.171875 C 855.917969 487.175781 855.667969 484.183594 855.425781 481.1875 C 854.75 472.824219 854.019531 464.464844 853.296875 456.105469 L 852.824219 450.636719 C 851.617188 436.828125 850.238281 423.042969 848.792969 409.257812 C 844.480469 368.09375 840.488281 326.992188 838.117188 285.664062 L 837.804688 280.285156 C 833.023438 196.121094 833.023438 196.121094 847.222656 167.4375 C 854.050781 155.320312 861.171875 144.0625 872.859375 136.152344 C 885.652344 129.398438 899.96875 127.144531 913.847656 131.285156 M 710.042969 170.058594 C 722.203125 173.089844 731.765625 179.414062 740.976562 187.792969 C 750.234375 198.210938 758.386719 209.511719 762.703125 222.886719 L 763.480469 226.824219 C 764.527344 232.011719 766.15625 236.875 767.820312 241.898438 C 770.339844 249.902344 771.832031 256.332031 771.058594 264.667969 L 774.402344 264.667969 L 775.628906 271.726562 L 776.4375 276.386719 C 777.035156 279.824219 777.632812 283.261719 778.226562 286.699219 C 779.78125 295.660156 781.351562 304.617188 782.960938 313.570312 L 783.863281 318.660156 C 784.433594 321.84375 785.003906 325.027344 785.585938 328.210938 C 787.199219 337.355469 788.34375 346.5625 789.019531 355.824219 C 789.421875 359.757812 790.148438 363.414062 791.113281 367.242188 C 793.066406 375.265625 793.554688 383.269531 794.042969 391.496094 C 794.453125 396.65625 795.234375 401.625 796.125 406.726562 C 796.628906 410.414062 797.113281 414.105469 797.589844 417.796875 C 798.734375 426.5625 799.980469 435.3125 801.328125 444.046875 C 802.40625 451.101562 803.449219 458.160156 804.484375 465.21875 L 805.035156 468.941406 C 807.082031 483.125 808.253906 497.378906 808.554688 511.703125 L 808.730469 516.03125 C 808.757812 519.875 808.636719 523.296875 807.824219 527.054688 C 804.339844 531.183594 801.429688 532.945312 796.464844 534.960938 C 793.105469 536.140625 789.734375 537.15625 786.308594 538.128906 L 782.855469 539.160156 C 779.484375 540.15625 776.109375 541.132812 772.730469 542.097656 L 766.613281 543.917969 C 761.621094 545.277344 756.859375 546.34375 751.734375 547.003906 L 747.238281 547.679688 C 742.648438 547.109375 742.648438 547.109375 737.429688 543.851562 C 731.40625 538.3125 729.257812 531.761719 726.769531 524.132812 L 725.289062 519.863281 C 724.285156 516.964844 723.296875 514.066406 722.320312 511.160156 C 720.675781 506.277344 718.949219 501.433594 717.214844 496.585938 C 715.53125 491.871094 713.882812 487.144531 712.234375 482.421875 C 710.828125 478.40625 709.414062 474.394531 708 470.382812 C 693.460938 429.015625 679.085938 387.507812 667.285156 345.265625 C 665.847656 340.15625 664.382812 335.050781 662.914062 329.949219 C 661.546875 325.203125 660.1875 320.457031 658.832031 315.707031 C 658.179688 313.417969 657.519531 311.128906 656.863281 308.84375 C 650.996094 288.476562 645.355469 267.527344 644.042969 246.285156 L 643.777344 242.488281 C 643.253906 228.484375 645.457031 214.199219 651.214844 201.378906 C 657.035156 191.148438 664.144531 181.78125 674.320312 175.625 C 686.320312 169.46875 696.65625 167.960938 710.042969 170.0625 M 1118.679688 172.75 C 1128.957031 177.457031 1136.953125 185.085938 1144.203125 193.648438 C 1151.324219 203.941406 1154.207031 215.582031 1155.445312 227.902344 C 1155.480469 233.660156 1155.226562 239.386719 1154.925781 245.136719 L 1154.742188 249.625 C 1154.296875 258.761719 1153.105469 267.421875 1151.121094 276.355469 C 1150.320312 279.6875 1150.320312 279.6875 1150.433594 283.054688 L 1147.089844 283.054688 L 1148.761719 288.066406 C 1147.683594 292.546875 1146.484375 296.839844 1145.105469 301.226562 L 1143.929688 305.085938 C 1142.769531 308.886719 1141.589844 312.683594 1140.40625 316.476562 L 1136.957031 327.65625 L 1135.425781 332.601562 C 1133.789062 337.972656 1132.25 343.363281 1130.726562 348.765625 C 1126.761719 362.691406 1122.496094 376.515625 1118.15625 390.324219 L 1116.925781 394.246094 C 1112.140625 409.480469 1107.222656 424.597656 1101.480469 439.503906 C 1095.355469 455.640625 1090.308594 472.167969 1085.097656 488.617188 C 1074.894531 520.707031 1074.894531 520.707031 1067.601562 533.636719 L 1065.609375 537.234375 C 1063.417969 540.59375 1061.648438 542.917969 1058.511719 545.4375 C 1045.425781 547.855469 1033.15625 544.441406 1020.816406 540.253906 L 1014.851562 538.128906 L 1008.691406 536.039062 C 993.855469 530.917969 993.855469 530.917969 989.992188 527.054688 C 984.449219 484.527344 998.277344 434.933594 1004.539062 392.9375 C 1006.035156 382.878906 1007.496094 372.816406 1008.910156 362.746094 C 1027.949219 227.664062 1027.949219 227.664062 1051.925781 196.722656 C 1060.855469 186.199219 1070.105469 178.058594 1082.839844 172.585938 C 1095.160156 168.460938 1106.273438 169.0625 1118.679688 172.75 M 1305.859375 273.027344 L 1305.859375 276.367188 L 1310.140625 277.101562 C 1317.253906 280.332031 1320.371094 284.109375 1324.886719 290.378906 C 1331.21875 300.648438 1334.613281 310.761719 1335 322.851562 C 1333.144531 369.265625 1304.324219 413.773438 1280.421875 452.234375 C 1278.003906 456.007812 1275.480469 459.710938 1272.851562 463.339844 C 1269.691406 467.730469 1267.058594 472.148438 1264.40625 476.847656 C 1260.53125 483.464844 1256.269531 489.832031 1252.066406 496.242188 L 1246.214844 505.199219 L 1243.339844 509.59375 C 1239.820312 515.015625 1236.320312 520.453125 1232.847656 525.90625 C 1226.628906 535.609375 1220.273438 545.207031 1213.855469 554.773438 C 1209.964844 560.578125 1206.117188 566.410156 1202.273438 572.246094 L 1198.710938 577.636719 C 1196.375 581.167969 1194.046875 584.707031 1191.726562 588.246094 C 1185.699219 597.34375 1179.699219 606.046875 1172.15625 613.960938 C 1167.667969 614.902344 1167.667969 614.902344 1163.800781 613.960938 L 1158.789062 610.617188 L 1158.789062 607.277344 L 1155.027344 605.917969 C 1150.617188 604.011719 1147.332031 602.105469 1143.746094 598.917969 L 1143.746094 595.578125 L 1140.175781 595.058594 C 1134.703125 593.738281 1130.566406 591.558594 1125.675781 588.785156 L 1120.734375 586.011719 L 1117.007812 583.878906 L 1117.007812 580.535156 L 1113.875 580.222656 L 1110.320312 578.863281 C 1108.257812 575.140625 1108.257812 575.140625 1106.980469 570.507812 C 1107.90625 566.289062 1107.90625 566.289062 1109.742188 561.890625 L 1111.691406 557.007812 L 1113.664062 552.125 C 1114.664062 549.261719 1115.640625 546.386719 1116.597656 543.507812 C 1124.566406 519.886719 1133.699219 496.863281 1143.242188 473.835938 C 1146.414062 466.144531 1149.53125 458.425781 1152.625 450.703125 L 1154.085938 447.074219 C 1156.890625 440.054688 1159.585938 432.992188 1162.179688 425.890625 C 1167.761719 410.738281 1174.089844 396.019531 1180.828125 381.34375 L 1182.476562 377.738281 C 1217.625 300.96875 1217.625 300.96875 1244.023438 279.710938 C 1264.792969 266.988281 1282.957031 264.839844 1305.859375 273.027344 M 539.695312 271.355469 C 553.109375 276.992188 563.5 285.386719 573.222656 296.109375 L 577.191406 301.4375 L 577.191406 306.449219 L 580.535156 306.449219 C 594.890625 323.960938 603.519531 346.027344 612.480469 366.585938 C 614.292969 370.6875 616.140625 374.769531 618.035156 378.835938 C 628.472656 401.8125 638.117188 425.007812 646.859375 448.679688 C 650.90625 459.621094 655.121094 470.496094 659.503906 481.304688 C 664.054688 492.546875 668.328125 503.890625 672.332031 515.335938 C 673.90625 519.734375 675.582031 524.09375 677.363281 528.414062 C 680.472656 536.078125 683.335938 543.820312 686.136719 551.601562 L 687.464844 555.214844 C 690.085938 562.566406 691.664062 569.429688 692.507812 577.191406 C 683.972656 583.578125 675.523438 589.222656 665.875 593.800781 C 656.898438 598.074219 649.394531 603.339844 641.652344 609.554688 C 636.800781 612.644531 633.007812 613.390625 627.332031 613.960938 C 620.207031 605.46875 614.007812 596.558594 608.214844 587.117188 C 600.816406 575.066406 593.085938 563.257812 585.238281 551.496094 L 581.867188 546.445312 C 576.644531 538.613281 571.328125 530.847656 565.914062 523.148438 C 561.753906 517.25 557.820312 511.207031 554.109375 505.015625 C 549.324219 497.160156 544.347656 489.433594 539.171875 481.828125 C 528.9375 466.640625 519.597656 450.933594 510.34375 435.136719 L 507.714844 430.648438 C 465.859375 358.953125 465.859375 358.953125 464.59375 324.207031 C 464.832031 313.332031 466.628906 304.324219 471.90625 294.75 C 479.199219 284.554688 487.277344 276.878906 498.410156 271.085938 C 511.941406 265.777344 526.179688 266.601562 539.695312 271.355469 M 1449.382812 418.445312 C 1457.503906 422.28125 1463.773438 426.5625 1469.640625 433.464844 L 1473.191406 437.332031 C 1478.394531 444.785156 1480.972656 451.328125 1481.820312 460.296875 C 1482.234375 476.195312 1479.433594 488.195312 1471.957031 502.195312 C 1465.1875 514.347656 1457.125 524.972656 1447.914062 535.410156 L 1444.617188 539.265625 C 1436.335938 548.742188 1427.519531 557.699219 1418.667969 566.644531 L 1415.121094 570.253906 C 1408.09375 577.304688 1400.59375 583.808594 1392.621094 589.765625 C 1388.390625 593.03125 1384.792969 596.769531 1381.0625 600.589844 C 1371.914062 609.046875 1362.375 616.984375 1352.703125 624.835938 C 1346.960938 629.578125 1341.269531 634.378906 1335.628906 639.238281 L 1332.59375 641.84375 C 1327.296875 646.398438 1322.042969 650.996094 1316.824219 655.636719 C 1312.171875 659.730469 1307.257812 663.476562 1302.078125 666.878906 C 1297.953125 670.050781 1294.476562 673.769531 1290.816406 677.46875 C 1286.53125 681.539062 1282.195312 685.5625 1277.863281 689.585938 L 1268.105469 698.660156 C 1266.742188 699.929688 1265.398438 701.222656 1264.078125 702.535156 C 1260.160156 703.085938 1260.160156 703.085938 1255.71875 702.535156 C 1252.742188 699.585938 1252.742188 699.585938 1249.871094 695.433594 C 1243.445312 686.8125 1236.273438 679.875 1228.257812 672.789062 C 1222.902344 668.019531 1218.117188 663.296875 1213.9375 657.414062 C 1212.132812 651.898438 1211.4375 649.558594 1212.269531 644.042969 C 1217.554688 632.59375 1226.046875 622.8125 1233.800781 612.957031 C 1240.085938 604.902344 1245.828125 596.523438 1251.542969 588.054688 C 1259.015625 576.972656 1266.871094 566.167969 1275.117188 555.640625 C 1279.382812 550.109375 1283.445312 544.460938 1287.472656 538.753906 C 1294.855469 528.320312 1302.527344 518.152344 1310.398438 508.082031 C 1312.578125 505.277344 1314.753906 502.46875 1316.917969 499.652344 C 1340.828125 468.710938 1366.421875 435.765625 1403.382812 420.101562 C 1418.457031 414.382812 1433.871094 412.992188 1449.382812 418.445312 M 370.375 416.023438 L 374.148438 416.054688 C 384.867188 416.367188 393.734375 418.675781 403.382812 423.4375 L 407.195312 425.214844 C 433.742188 438.671875 455.519531 463.816406 473.574219 486.945312 C 475.046875 488.789062 476.519531 490.628906 477.996094 492.46875 C 486.398438 502.976562 494.484375 513.726562 502.246094 524.71875 C 507.667969 532.390625 513.253906 539.921875 518.910156 547.425781 L 523.972656 554.160156 C 526.269531 557.210938 528.566406 560.265625 530.859375 563.3125 C 532.734375 565.808594 534.597656 568.3125 536.457031 570.820312 L 539.550781 574.96875 C 542.140625 578.933594 543.84375 582.773438 545.4375 587.21875 L 548.78125 587.21875 C 551.082031 590.515625 553.3125 593.859375 555.46875 597.25 C 557.847656 600.429688 560.25 603.601562 562.675781 606.753906 C 569.730469 616.089844 576.046875 625.742188 582.207031 635.6875 L 585.550781 640.699219 C 586.609375 645.867188 586.515625 650.5625 585.550781 655.742188 C 581.109375 664.207031 574.753906 670.109375 567.164062 675.796875 L 563.824219 680.8125 L 560.480469 680.8125 L 559.15625 683.714844 C 556.996094 687.761719 554.5625 690.996094 551.601562 694.496094 L 548.695312 698.011719 C 545.4375 700.867188 545.4375 700.867188 541.203125 702.398438 L 537.082031 702.535156 C 534.355469 700.671875 534.355469 700.671875 531.859375 697.730469 C 527.085938 692.515625 522.136719 688.046875 516.609375 683.632812 C 505.707031 674.847656 494.929688 665.71875 485.269531 655.566406 C 481.636719 652.117188 477.875 649.925781 473.574219 647.386719 C 471.121094 645.320312 468.722656 643.195312 466.371094 641.015625 C 460.375 635.554688 454.207031 630.675781 447.5625 626.039062 L 445.164062 623.988281 L 445.164062 620.644531 L 442.136719 619.183594 C 438.480469 617.304688 438.480469 617.304688 433.464844 613.960938 L 433.464844 610.617188 L 430.585938 609.351562 C 426.21875 606.96875 423.027344 604.171875 419.363281 600.800781 L 414.964844 596.773438 L 401.542969 584.335938 C 399.679688 582.609375 397.8125 580.875 395.953125 579.136719 C 392.011719 575.46875 388.074219 571.96875 383.851562 568.621094 C 380.304688 565.753906 377.554688 562.9375 374.660156 559.4375 C 370.175781 554.164062 365.464844 549.375 360.453125 544.605469 C 342.523438 526.8125 328.039062 506.179688 319.195312 482.457031 C 317.257812 472.203125 317.226562 462.144531 320.136719 452.023438 C 323.507812 443.285156 327.96875 435.230469 334.738281 428.679688 C 345.90625 419.941406 356.285156 415.820312 370.375 416.023438 M 311.464844 602.261719 C 318.527344 605.433594 325.398438 608.945312 332.246094 612.558594 C 336.878906 615.007812 341.648438 617.148438 346.5625 618.972656 L 346.5625 622.316406 L 350.113281 622.734375 C 356.070312 624.289062 360.082031 626.941406 364.945312 630.671875 L 364.945312 634.015625 L 369.957031 634.015625 L 369.957031 637.359375 L 372.570312 637.777344 C 378.390625 639.566406 383.113281 642.597656 388.34375 645.714844 L 388.34375 649.058594 L 395.027344 650.726562 L 395.027344 654.070312 L 399.519531 655.324219 C 405.273438 657.496094 408.949219 659.898438 413.410156 664.097656 L 413.410156 667.441406 L 416.6875 668.472656 C 423.871094 671.742188 429.851562 676.339844 436.179688 681.019531 L 444.226562 686.914062 L 448.160156 689.8125 C 451.386719 692.171875 454.636719 694.5 457.90625 696.796875 L 462.921875 700.34375 L 467.269531 703.390625 L 470.234375 705.878906 L 470.234375 709.222656 L 476.917969 710.894531 L 476.917969 714.234375 L 485.273438 717.578125 L 485.273438 720.921875 L 488.40625 722.488281 L 495.300781 725.933594 L 495.300781 729.277344 L 500.316406 730.949219 C 501.621094 736.46875 502.1875 740.21875 500.734375 745.753906 C 495.546875 757.746094 489.632812 770.042969 480.261719 779.414062 C 470.714844 778.667969 462.320312 776.601562 453.304688 773.488281 L 449.496094 772.203125 C 445.507812 770.859375 441.523438 769.496094 437.539062 768.132812 L 429.664062 765.46875 C 424.496094 763.722656 419.332031 761.972656 414.167969 760.210938 C 407.15625 757.835938 400.132812 755.488281 393.101562 753.171875 C 386.851562 751.09375 380.628906 749.003906 374.476562 746.660156 C 366.769531 743.746094 358.976562 741.15625 351.15625 738.574219 L 346.457031 737.007812 C 340.03125 734.867188 333.597656 732.753906 327.152344 730.667969 C 315.519531 726.890625 304.304688 722.429688 293.082031 717.578125 L 289.300781 716.03125 C 266.816406 706.597656 247.679688 694.152344 231.605469 675.71875 C 227.226562 669.949219 224.816406 664.34375 222.886719 657.414062 C 221.832031 646.261719 221.273438 634.578125 225.394531 623.988281 C 229.621094 616.113281 235.597656 610.585938 242.941406 605.605469 C 263.804688 594.164062 289.34375 593.996094 311.464844 602.261719 M 1270.738281 1272.214844 L 1275.882812 1272.199219 L 1281.4375 1272.210938 L 1287.164062 1272.207031 C 1291.167969 1272.207031 1295.175781 1272.207031 1299.179688 1272.214844 C 1305.28125 1272.222656 1311.386719 1272.21875 1317.488281 1272.203125 C 1321.382812 1272.203125 1325.277344 1272.207031 1329.171875 1272.210938 L 1334.671875 1272.199219 C 1344.144531 1272.230469 1353.363281 1272.328125 1362.679688 1274.105469 C 1367.746094 1279.410156 1369.699219 1284.613281 1371.421875 1291.585938 C 1371.976562 1294.320312 1372.511719 1297.058594 1373.019531 1299.800781 L 1373.855469 1303.910156 C 1375.140625 1310.414062 1376.214844 1316.886719 1376.972656 1323.472656 L 1377.722656 1329.253906 L 1379.394531 1330.925781 C 1380.1875 1334.859375 1380.90625 1338.777344 1381.585938 1342.730469 C 1383.726562 1354.71875 1386.507812 1366.425781 1389.640625 1378.191406 C 1390.699219 1382.671875 1391.492188 1387.199219 1392.019531 1391.769531 L 1392.761719 1397.777344 L 1394.433594 1399.449219 C 1395.386719 1403.726562 1396.246094 1407.988281 1397.042969 1412.296875 C 1397.277344 1413.480469 1397.507812 1414.664062 1397.746094 1415.882812 C 1399.035156 1422.757812 1399.703125 1429.1875 1399.449219 1436.214844 C 1387.460938 1437.679688 1375.722656 1438.078125 1363.65625 1437.921875 L 1358.117188 1437.875 C 1352.128906 1437.820312 1346.144531 1437.75 1340.15625 1437.683594 L 1327.640625 1437.5625 C 1316.699219 1437.460938 1305.757812 1437.347656 1294.816406 1437.226562 C 1283.636719 1437.109375 1272.457031 1437 1261.277344 1436.890625 C 1239.371094 1436.675781 1217.460938 1436.449219 1195.554688 1436.214844 C 1193.78125 1428.292969 1193.78125 1428.292969 1194.710938 1424.371094 L 1196.175781 1420.90625 L 1197.8125 1416.9375 L 1199.628906 1412.710938 L 1203.378906 1403.699219 L 1205.332031 1399.042969 C 1207.757812 1393.230469 1210.074219 1387.371094 1212.386719 1381.507812 C 1217.152344 1369.390625 1222.203125 1357.394531 1227.539062 1345.515625 C 1230.917969 1337.855469 1233.957031 1330.082031 1236.90625 1322.242188 L 1238.132812 1318.988281 C 1240.164062 1313.566406 1242.179688 1308.140625 1244.175781 1302.707031 C 1251.785156 1282.234375 1251.785156 1282.234375 1257.390625 1274.105469 C 1262.34375 1272.453125 1265.578125 1272.21875 1270.742188 1272.214844 M 1522.808594 596.621094 L 1526.761719 596.613281 C 1537.605469 596.8125 1546.773438 599.109375 1556.546875 603.933594 L 1556.546875 607.277344 L 1560.621094 608.632812 L 1564.902344 610.617188 L 1566.574219 615.632812 L 1569.914062 615.632812 L 1571.585938 623.988281 L 1574.929688 623.988281 C 1578.117188 634.953125 1579.703125 644.988281 1577.515625 656.324219 C 1576.71875 659.488281 1575.855469 662.636719 1574.929688 665.769531 L 1571.585938 665.769531 L 1570.332031 670.261719 C 1567.59375 677.527344 1563.578125 682.285156 1557.898438 687.542969 C 1547.976562 695.53125 1537.839844 701.847656 1526.464844 707.550781 L 1523.5 709.070312 C 1492.964844 724.597656 1460.722656 736.261719 1427.953125 746.0625 C 1422.421875 747.792969 1417.003906 749.742188 1411.566406 751.734375 C 1401.527344 755.386719 1391.398438 758.421875 1381.136719 761.351562 C 1374.722656 763.207031 1368.53125 765.230469 1362.367188 767.820312 C 1352.15625 772.097656 1341.679688 775.136719 1330.925781 777.742188 L 1326.871094 778.808594 C 1323.511719 779.308594 1323.511719 779.308594 1317.558594 777.742188 C 1312.554688 772.160156 1309.207031 766.039062 1305.859375 759.359375 L 1303.585938 754.832031 C 1300.6875 748.378906 1299.15625 744.035156 1299.25 736.855469 C 1300.84375 730.949219 1300.84375 730.949219 1304.996094 726.371094 C 1306.789062 724.90625 1308.609375 723.472656 1310.453125 722.070312 L 1313.402344 719.707031 C 1316.4375 717.300781 1319.492188 714.917969 1322.570312 712.5625 L 1328.082031 708.257812 C 1332.570312 704.769531 1337.082031 701.316406 1341.617188 697.890625 C 1345.984375 694.566406 1350.304688 691.179688 1354.636719 687.808594 C 1383.632812 665.445312 1413.800781 644.496094 1444.675781 624.824219 L 1448.46875 622.390625 C 1460.269531 614.953125 1472.550781 608.289062 1485.726562 603.621094 L 1489.972656 602.085938 C 1501.160156 598.554688 1511.101562 596.601562 1522.808594 596.621094 " fill-opacity="1" fill-rule="nonzero"/><path fill="#00aa47" d="M 461.53125 1272.210938 L 465.28125 1272.203125 C 469.265625 1272.203125 473.25 1272.210938 477.230469 1272.222656 L 481.320312 1272.234375 C 512.636719 1272.320312 512.636719 1272.320312 527.996094 1272.953125 L 531.746094 1273.066406 C 535.105469 1273.25 535.105469 1273.25 540.425781 1274.105469 C 544.761719 1277.585938 546.714844 1281.273438 548.867188 1286.34375 L 550.71875 1290.679688 L 552.648438 1295.308594 L 554.65625 1300.058594 C 559.097656 1310.652344 563.285156 1321.34375 567.21875 1332.132812 C 569.371094 1338.027344 571.703125 1343.738281 574.375 1349.414062 C 577.214844 1355.550781 578.292969 1360.96875 578.863281 1367.695312 L 582.207031 1367.695312 L 583.929688 1372.367188 C 585.1875 1375.757812 586.445312 1379.148438 587.707031 1382.535156 C 590.332031 1389.535156 593.050781 1396.492188 595.878906 1403.417969 L 597.722656 1407.941406 C 598.925781 1410.878906 600.136719 1413.8125 601.359375 1416.738281 L 603.03125 1420.835938 L 604.535156 1424.457031 C 605.605469 1427.859375 605.605469 1427.859375 605.605469 1434.542969 C 601.5 1436.597656 598.839844 1436.421875 594.246094 1436.417969 L 589.121094 1436.421875 L 583.472656 1436.40625 L 577.542969 1436.40625 C 572.171875 1436.40625 566.796875 1436.398438 561.425781 1436.382812 C 555.816406 1436.375 550.203125 1436.371094 544.589844 1436.371094 C 533.960938 1436.367188 523.332031 1436.355469 512.699219 1436.335938 C 500.601562 1436.320312 488.5 1436.308594 476.398438 1436.300781 C 451.5 1436.28125 426.605469 1436.253906 401.710938 1436.214844 C 400.410156 1430.265625 399.980469 1426.195312 401.378906 1420.242188 L 402.398438 1415.792969 L 403.546875 1411.007812 L 404.707031 1405.972656 C 405.53125 1402.40625 406.363281 1398.839844 407.199219 1395.277344 C 409.371094 1385.992188 411.519531 1376.699219 413.632812 1367.402344 L 414.910156 1361.820312 C 418.894531 1344.199219 422.265625 1326.492188 425.230469 1308.675781 C 427.15625 1297.554688 429.421875 1287.296875 435.136719 1277.445312 L 438.480469 1274.105469 C 446.132812 1272.316406 453.710938 1272.1875 461.53125 1272.210938 " fill-opacity="1" fill-rule="nonzero"/><path fill="#fefefe" d="M 898.074219 1232.324219 C 905.113281 1235.011719 909.53125 1240.242188 914.472656 1245.691406 L 917.152344 1248.621094 C 924.363281 1256.625 930.671875 1265.046875 936.511719 1274.105469 L 939.855469 1279.117188 C 939.148438 1287.25 933.253906 1293.894531 928.820312 1300.433594 C 923.703125 1307.570312 917.816406 1313.902344 911.777344 1320.273438 C 908.652344 1323.636719 905.753906 1327.1875 903.085938 1330.925781 C 900.234375 1330.585938 900.234375 1330.585938 896.402344 1329.253906 C 884.917969 1318.863281 876.144531 1306.269531 867.679688 1293.414062 C 865.066406 1289.027344 865.066406 1289.027344 861.304688 1287.472656 C 860.804688 1283.144531 860.804688 1283.144531 861.304688 1277.445312 C 863.855469 1273.417969 866.289062 1270.078125 869.347656 1266.480469 L 871.824219 1263.453125 C 874.421875 1260.300781 877.046875 1257.167969 879.6875 1254.050781 L 885.003906 1247.699219 C 889.328125 1242.546875 893.691406 1237.425781 898.074219 1232.324219 M 505.328125 1330.925781 L 505.328125 1334.269531 L 510.34375 1335.941406 C 512.246094 1339.863281 513.953125 1343.867188 515.460938 1347.953125 L 516.757812 1351.296875 C 517.996094 1354.523438 519.191406 1357.761719 520.371094 1361.007812 L 522.347656 1366.421875 C 523.714844 1371.035156 523.714844 1371.035156 523.714844 1377.722656 C 517.84375 1379.578125 512.628906 1379.449219 506.503906 1379.191406 L 500.402344 1378.945312 L 494.046875 1378.660156 L 487.617188 1378.398438 C 482.378906 1378.179688 477.140625 1377.953125 471.90625 1377.722656 L 470.234375 1369.367188 L 473.574219 1369.367188 L 473.261719 1363.097656 C 473.214844 1353.074219 475.867188 1343.851562 478.589844 1334.269531 C 487.582031 1331.972656 496.015625 1330.703125 505.328125 1330.925781 M 1320.898438 1334.269531 C 1322.027344 1339.628906 1323.140625 1344.992188 1324.242188 1350.355469 L 1325.207031 1354.929688 C 1326.777344 1362.605469 1328.195312 1369.839844 1327.585938 1377.722656 L 1325.914062 1379.394531 C 1321.230469 1379.5625 1316.597656 1379.628906 1311.917969 1379.601562 L 1307.800781 1379.59375 C 1297.617188 1379.519531 1287.558594 1378.96875 1277.445312 1377.722656 L 1275.777344 1372.707031 C 1276.578125 1369.175781 1276.578125 1369.175781 1277.996094 1365.140625 L 1279.542969 1360.714844 L 1281.207031 1356.101562 L 1282.792969 1351.507812 C 1287.492188 1338.265625 1287.492188 1338.265625 1292.488281 1332.597656 C 1301.960938 1329.734375 1311.617188 1331.175781 1320.898438 1334.269531 " fill-opacity="1" fill-rule="nonzero"/></svg>